<?xml version="1.0" encoding="us-ascii" standalone="no"?><svg xmlns="http://www.w3.org/2000/svg" xmlns:xlink="http://www.w3.org/1999/xlink" contentStyleType="text/css" height="653px" preserveAspectRatio="none" style="width:289px;height:653px;background:#FFFFFF;" version="1.1" viewBox="0 0 289 653" width="289px" zoomAndPan="magnify"><defs/><g><g id="pp"><rect fill="#ADD8E6" height="50" rx="12.5" ry="12.5" style="stroke:#181818;stroke-width:0.5;" width="171" x="27" y="245"/><line style="stroke:#181818;stroke-width:0.5;" x1="27" x2="198" y1="271.2969" y2="271.2969"/><text fill="#000000" font-family="sans-serif" font-size="14" lengthAdjust="spacing" textLength="151" x="37" y="262.9951">Pendente Pagamento</text></g><ellipse cx="112.5" cy="16" fill="#222222" rx="10" ry="10" style="stroke:#222222;stroke-width:1.0;"/><g id="Pendente"><rect fill="#F1F1F1" height="50" rx="12.5" ry="12.5" style="stroke:#181818;stroke-width:0.5;" width="88" x="68.5" y="103"/><line style="stroke:#181818;stroke-width:0.5;" x1="68.5" x2="156.5" y1="129.2969" y2="129.2969"/><text fill="#000000" font-family="sans-serif" font-size="14" lengthAdjust="spacing" textLength="68" x="78.5" y="120.9951">Pendente</text></g><g id="Pago"><rect fill="#F1F1F1" height="50" rx="12.5" ry="12.5" style="stroke:#181818;stroke-width:0.5;" width="55" x="85" y="372"/><line style="stroke:#181818;stroke-width:0.5;" x1="85" x2="140" y1="398.2969" y2="398.2969"/><text fill="#000000" font-family="sans-serif" font-size="14" lengthAdjust="spacing" textLength="35" x="95" y="389.9951">Pago</text></g><g id="Aprovado"><rect fill="#90EE90" height="50" rx="12.5" ry="12.5" style="stroke:#181818;stroke-width:0.5;" width="85" x="7" y="514"/><line style="stroke:#181818;stroke-width:0.5;" x1="7" x2="92" y1="540.2969" y2="540.2969"/><text fill="#000000" font-family="sans-serif" font-size="14" lengthAdjust="spacing" textLength="65" x="17" y="531.9951">Aprovado</text></g><g id="Reprovado"><rect fill="#FF4500" height="50" rx="12.5" ry="12.5" style="stroke:#181818;stroke-width:0.5;" width="95" x="130" y="514"/><line style="stroke:#181818;stroke-width:0.5;" x1="130" x2="225" y1="540.2969" y2="540.2969"/><text fill="#000000" font-family="sans-serif" font-size="14" lengthAdjust="spacing" textLength="75" x="140" y="531.9951">Reprovado</text></g><ellipse cx="111.5" cy="636" fill="none" rx="11" ry="11" style="stroke:#222222;stroke-width:1.0;"/><ellipse cx="111.5" cy="636" fill="#222222" rx="6" ry="6" style="stroke:#222222;stroke-width:1.0;"/><!--link *start* to Pendente--><g id="link_*start*_Pendente"><path d="M112.5,26.38 C112.5,43.11 112.5,72.59 112.5,96.63 " fill="none" id="*start*-to-Pendente" style="stroke:#181818;stroke-width:1.0;"/><polygon fill="#181818" points="112.5,102.63,116.5,93.63,112.5,97.63,108.5,93.63,112.5,102.63" style="stroke:#181818;stroke-width:1.0;"/><text fill="#000000" font-family="sans-serif" font-size="13" lengthAdjust="spacing" textLength="168" x="113.5" y="69.0669">Gestor registra a inscri&#231;&#227;o</text></g><!--link Pendente to pp--><g id="link_Pendente_pp"><path d="M112.5,153.39 C112.5,179.08 112.5,213.3 112.5,238.89 " fill="none" id="Pendente-to-pp" style="stroke:#181818;stroke-width:1.0;"/><polygon fill="#181818" points="112.5,244.89,116.5,235.89,112.5,239.89,108.5,235.89,112.5,244.89" style="stroke:#181818;stroke-width:1.0;"/><text fill="#000000" font-family="sans-serif" font-size="13" lengthAdjust="spacing" textLength="130" x="113.5" y="196.0669">Sistema emite t&#237;tulo</text><text fill="#000000" font-family="sans-serif" font-size="13" lengthAdjust="spacing" textLength="107" x="125" y="211.1997">para pagamento</text></g><!--link pp to Pago--><g id="link_pp_Pago"><path d="M112.5,295.4 C112.5,317.42 112.5,343.66 112.5,365.66 " fill="none" id="pp-to-Pago" style="stroke:#181818;stroke-width:1.0;"/><polygon fill="#181818" points="112.5,371.66,116.5,362.66,112.5,366.66,108.5,362.66,112.5,371.66" style="stroke:#181818;stroke-width:1.0;"/><text fill="#000000" font-family="sans-serif" font-size="13" lengthAdjust="spacing" textLength="72" x="113.5" y="338.0669">Aluno paga</text></g><!--link Pago to Aprovado--><g id="link_Pago_Aprovado"><path d="M84.68,410.75 C68.58,419.77 49.72,433.55 40.5,452 C30.9,471.2 33.1171,490.0397 38.4671,507.9997 " fill="none" id="Pago-to-Aprovado" style="stroke:#181818;stroke-width:1.0;"/><polygon fill="#181818" points="40.18,513.75,41.4441,503.9826,38.7526,508.9581,33.7771,506.2665,40.18,513.75" style="stroke:#181818;stroke-width:1.0;"/><text fill="#000000" font-family="sans-serif" font-size="13" lengthAdjust="spacing" textLength="96" x="41.5" y="465.0669">Gestor registra</text><text fill="#000000" font-family="sans-serif" font-size="13" lengthAdjust="spacing" textLength="67" x="56" y="480.1997">aprova&#231;&#227;o</text></g><!--link Pago to Reprovado--><g id="link_Pago_Reprovado"><path d="M126.88,422.4 C132.05,431.56 137.77,442.13 142.5,452 C152.25,472.35 159.6563,490.556 166.3163,507.966 " fill="none" id="Pago-to-Reprovado" style="stroke:#181818;stroke-width:1.0;"/><polygon fill="#181818" points="168.46,513.57,168.9804,503.7349,166.6736,508.9,161.5084,506.5932,168.46,513.57" style="stroke:#181818;stroke-width:1.0;"/><text fill="#000000" font-family="sans-serif" font-size="13" lengthAdjust="spacing" textLength="96" x="156.5" y="465.0669">Gestor registra</text><text fill="#000000" font-family="sans-serif" font-size="13" lengthAdjust="spacing" textLength="72" x="168.5" y="480.1997">reprova&#231;&#227;o</text></g><!--link Aprovado to *end*--><g id="link_Aprovado_*end*"><path d="M65.47,564.46 C78.67,584.7 93.3894,607.2563 102.4794,621.1763 " fill="none" id="Aprovado-to-*end*" style="stroke:#181818;stroke-width:1.0;"/><polygon fill="#181818" points="105.76,626.2,104.1883,616.4774,103.0262,622.0136,97.49,620.8515,105.76,626.2" style="stroke:#181818;stroke-width:1.0;"/></g><!--link Reprovado to *end*--><g id="link_Reprovado_*end*"><path d="M160.5,564.46 C146.3,584.92 130.2818,607.9514 120.7218,621.7214 " fill="none" id="Reprovado-to-*end*" style="stroke:#181818;stroke-width:1.0;"/><polygon fill="#181818" points="117.3,626.65,125.7184,621.5382,120.1515,622.5428,119.1469,616.9759,117.3,626.65" style="stroke:#181818;stroke-width:1.0;"/></g><!--SRC=[VOyn3i8m34NtdC9gDwHUW06fB5sGG31I1ejQ8LARH4xAXHYOE4KlXXjeGK9Yi_p_-_uE4ID1jYFRa9LfXnexcLm66C1xo3T6N-AwxKcfu-84HR62sRs4Ya9q34pQXCW82CQ6CvlXFjoSceqZ9M5BE8YDEWJgZApZy8XzwshhKLW_tLPYJNTGEs7AjhSkgIfjHgdqxAxOkDyAjSMalHjCm9x-44nVo1pzUhrY8fiYv7trYSctZ5RJdff9V080]--></g></svg>