<?xml version="1.0" encoding="us-ascii" standalone="no"?><svg xmlns="http://www.w3.org/2000/svg" xmlns:xlink="http://www.w3.org/1999/xlink" contentStyleType="text/css" height="869px" preserveAspectRatio="none" style="width:723px;height:869px;background:#FFFFFF;" version="1.1" viewBox="0 0 723 869" width="723px" zoomAndPan="magnify"><defs/><g><text fill="#000000" font-family="sans-serif" font-size="14" font-weight="bold" lengthAdjust="spacing" textLength="180" x="264.9249" y="22.9951">Arquitetura Vers&#227;o 4.x</text><!--cluster internet--><g id="cluster_internet"><path d="M278.7076,155.9062 C285.7027,140.6387 300.559,139.9721 308.7183,154.743 C317.1502,142.2474 330.6934,140.2355 339.2159,154.6403 C346.7031,140.5267 355.1343,141.8932 364.9297,152.211 C371.6051,137.9303 385.2871,135.3787 395.5317,148.1775 C404.3038,133.4748 414.4273,133.463 423.0763,148.2923 C433.2978,132.8437 443.9621,131.6173 454.0572,148.4137 C462.2874,132.7868 472.2546,134.8525 482.19,146.6655 C489.0966,130.4419 501.2302,129.5406 510.5869,144.4292 C523.7888,130.673 533.5238,132.5607 540.1859,150.5305 C547.4649,136.8814 561.0755,138.6659 568.7306,150.1026 C579.4964,137.9514 589.8654,139.9615 597.9743,153.1667 C606.6422,138.9371 616.4883,140.5696 625.1449,153.1782 C633.8818,140.7491 645.566,141.6039 653.7206,153.8524 C667.4245,139.7392 677.4421,141.4662 686,159.0869 C688.2999,157.7088 690.6797,158.4681 690.5481,161.5605 C714.8398,169.6123 716.2194,187.638 697.3366,202.7972 C716.8497,225.324 706.2269,245.4381 679,249.6869 C681.8359,249.4784 683.3168,250.8541 682.664,253.7735 C674.3678,268.2504 664.1519,266.1466 655.0277,254.6546 C647.5168,269.0506 633.7445,271.517 623.7697,257.3511 C614.5241,270.182 602.7946,268.8914 596.0749,254.757 C587.083,266.5377 577.2162,269.789 567.9856,255.0094 C559.9454,269.011 546.2582,269.6429 536.9016,256.5179 C529.8906,271.5557 520.8517,272.1137 509.0164,261.8308 C499.7584,274.1338 490.9079,273.7171 481.7092,261.764 C470.1383,273.3344 461.3198,273.0658 453.7403,257.6303 C442.6075,274.1602 431.2314,272.9299 421.2252,256.5182 C413.4371,268.1315 401.4797,268.4938 394.4615,255.6748 C383.911,270.3223 372.6003,269.6279 363.9406,253.7822 C355.439,267.8374 346.4792,267.4216 336.897,254.881 C327.6312,265.8304 316.6837,266.5551 309.3713,252.7123 C291.4028,268.7576 277.7735,266.679 270,242.6869 C273.0209,242.8399 274.4329,244.8281 272.7245,247.6024 C247.0318,235.8726 247.9049,217.5292 269.4229,202.3545 C246.3662,182.6193 251.9079,164.5644 277,152.0869 C279.1719,152.4428 279.8614,154.0635 278.7076,155.9062 " fill="#98FB98" style="stroke:#181818;stroke-width:1.0;"/><text fill="#000000" font-family="sans-serif" font-size="14" font-weight="bold" lengthAdjust="spacing" textLength="63" x="446.5" y="170.082">Internet</text></g><!--cluster backend--><g id="cluster_backend"><polygon fill="none" points="16,291.6869,26,281.6869,411,281.6869,411,630.8769,401,640.8769,16,640.8769,16,291.6869" style="stroke:#181818;stroke-width:1.0;"/><line style="stroke:#181818;stroke-width:1.0;" x1="401" x2="411" y1="291.6869" y2="281.6869"/><line style="stroke:#181818;stroke-width:1.0;" x1="16" x2="401" y1="291.6869" y2="291.6869"/><line style="stroke:#181818;stroke-width:1.0;" x1="401" x2="401" y1="291.6869" y2="640.8769"/><text fill="#000000" font-family="sans-serif" font-size="14" font-weight="bold" lengthAdjust="spacing" textLength="67" x="176" y="307.682">backend</text></g><!--cluster auth--><g id="cluster_auth"><polygon fill="none" points="435,534.5769,445,524.5769,653,524.5769,653,842.4669,643,852.4669,435,852.4669,435,534.5769" style="stroke:#181818;stroke-width:1.0;"/><line style="stroke:#181818;stroke-width:1.0;" x1="643" x2="653" y1="534.5769" y2="524.5769"/><line style="stroke:#181818;stroke-width:1.0;" x1="435" x2="643" y1="534.5769" y2="534.5769"/><line style="stroke:#181818;stroke-width:1.0;" x1="643" x2="643" y1="534.5769" y2="852.4669"/><text fill="#000000" font-family="sans-serif" font-size="14" font-weight="bold" lengthAdjust="spacing" textLength="35" x="522.5" y="550.572">auth</text></g><!--entity web_admin--><g id="elem_web_admin"><rect fill="#F1F1F1" height="62.5938" rx="2.5" ry="2.5" style="stroke:#181818;stroke-width:0.5;" width="110" x="568" y="179.0869"/><rect fill="#F1F1F1" height="10" style="stroke:#181818;stroke-width:0.5;" width="15" x="658" y="184.0869"/><rect fill="#F1F1F1" height="2" style="stroke:#181818;stroke-width:0.5;" width="4" x="656" y="186.0869"/><rect fill="#F1F1F1" height="2" style="stroke:#181818;stroke-width:0.5;" width="4" x="656" y="190.0869"/><text fill="#000000" font-family="sans-serif" font-size="14" font-style="italic" lengthAdjust="spacing" textLength="70" x="583" y="212.082">&#171;m&#243;dulo&#187;</text><text fill="#000000" font-family="sans-serif" font-size="14" lengthAdjust="spacing" textLength="42" x="597" y="228.3789">admin</text></g><!--entity web_gestor--><g id="elem_web_gestor"><rect fill="#F1F1F1" height="62.5938" rx="2.5" ry="2.5" style="stroke:#181818;stroke-width:0.5;" width="110" x="278" y="179.0869"/><rect fill="#F1F1F1" height="10" style="stroke:#181818;stroke-width:0.5;" width="15" x="368" y="184.0869"/><rect fill="#F1F1F1" height="2" style="stroke:#181818;stroke-width:0.5;" width="4" x="366" y="186.0869"/><rect fill="#F1F1F1" height="2" style="stroke:#181818;stroke-width:0.5;" width="4" x="366" y="190.0869"/><text fill="#000000" font-family="sans-serif" font-size="14" font-style="italic" lengthAdjust="spacing" textLength="70" x="293" y="212.082">&#171;m&#243;dulo&#187;</text><text fill="#000000" font-family="sans-serif" font-size="14" lengthAdjust="spacing" textLength="45" x="305.5" y="228.3789">gestor</text></g><!--entity web_professor--><g id="elem_web_professor"><rect fill="#F1F1F1" height="62.5938" rx="2.5" ry="2.5" style="stroke:#181818;stroke-width:0.5;" width="110" x="423" y="179.0869"/><rect fill="#F1F1F1" height="10" style="stroke:#181818;stroke-width:0.5;" width="15" x="513" y="184.0869"/><rect fill="#F1F1F1" height="2" style="stroke:#181818;stroke-width:0.5;" width="4" x="511" y="186.0869"/><rect fill="#F1F1F1" height="2" style="stroke:#181818;stroke-width:0.5;" width="4" x="511" y="190.0869"/><text fill="#000000" font-family="sans-serif" font-size="14" font-style="italic" lengthAdjust="spacing" textLength="70" x="438" y="212.082">&#171;m&#243;dulo&#187;</text><text fill="#000000" font-family="sans-serif" font-size="14" lengthAdjust="spacing" textLength="66" x="440" y="228.3789">professor</text></g><!--entity http--><g id="elem_http"><ellipse cx="347" cy="350.6869" fill="#F1F1F1" rx="8" ry="8" style="stroke:#181818;stroke-width:0.5;"/><text fill="#000000" font-family="sans-serif" font-size="14" lengthAdjust="spacing" textLength="61" x="316.5" y="380.682">HTTP api</text></g><!--entity db--><g id="elem_db"><path d="M293.5,580.9269 C293.5,570.9269 344,570.9269 344,570.9269 C344,570.9269 394.5,570.9269 394.5,580.9269 L394.5,606.2238 C394.5,616.2238 344,616.2238 344,616.2238 C344,616.2238 293.5,616.2238 293.5,606.2238 L293.5,580.9269 " fill="#FFA500" style="stroke:#181818;stroke-width:0.5;"/><path d="M293.5,580.9269 C293.5,590.9269 344,590.9269 344,590.9269 C344,590.9269 394.5,590.9269 394.5,580.9269 " fill="none" style="stroke:#181818;stroke-width:0.5;"/><text fill="#000000" font-family="sans-serif" font-size="14" lengthAdjust="spacing" textLength="81" x="303.5" y="607.922">PostgreSQL</text></g><!--entity queue--><g id="elem_queue"><path d="M155.5,338.0369 C155.5,328.0369 198,328.0369 198,328.0369 C198,328.0369 240.5,328.0369 240.5,338.0369 L240.5,363.3338 C240.5,373.3338 198,373.3338 198,373.3338 C198,373.3338 155.5,373.3338 155.5,363.3338 L155.5,338.0369 " fill="#FFA500" style="stroke:#181818;stroke-width:0.5;"/><path d="M155.5,338.0369 C155.5,348.0369 198,348.0369 198,348.0369 C198,348.0369 240.5,348.0369 240.5,338.0369 " fill="none" style="stroke:#181818;stroke-width:0.5;"/><text fill="#000000" font-family="sans-serif" font-size="14" lengthAdjust="spacing" textLength="65" x="165.5" y="365.032">Redis Fila</text></g><!--entity api--><g id="elem_api"><rect fill="#00BFFF" height="62.5938" rx="2.5" ry="2.5" style="stroke:#181818;stroke-width:0.5;" width="114" x="281" y="439.6869"/><rect fill="#00BFFF" height="10" style="stroke:#181818;stroke-width:0.5;" width="15" x="375" y="444.6869"/><rect fill="#00BFFF" height="2" style="stroke:#181818;stroke-width:0.5;" width="4" x="373" y="446.6869"/><rect fill="#00BFFF" height="2" style="stroke:#181818;stroke-width:0.5;" width="4" x="373" y="450.6869"/><text fill="#000000" font-family="sans-serif" font-size="14" font-style="italic" lengthAdjust="spacing" textLength="38" x="314" y="472.682">&#171;api&#187;</text><text fill="#000000" font-family="sans-serif" font-size="14" lengthAdjust="spacing" textLength="74" x="296" y="488.9789">Django API</text></g><!--entity worker--><g id="elem_worker"><rect fill="#F1F1F1" height="46.2969" rx="2.5" ry="2.5" style="stroke:#181818;stroke-width:0.5;" width="142" x="104" y="447.8369"/><rect fill="#F1F1F1" height="10" style="stroke:#181818;stroke-width:0.5;" width="15" x="226" y="452.8369"/><rect fill="#F1F1F1" height="2" style="stroke:#181818;stroke-width:0.5;" width="4" x="224" y="454.8369"/><rect fill="#F1F1F1" height="2" style="stroke:#181818;stroke-width:0.5;" width="4" x="224" y="458.8369"/><text fill="#000000" font-family="sans-serif" font-size="14" lengthAdjust="spacing" textLength="102" x="119" y="480.832">Django Worker</text></g><!--entity smtp--><g id="elem_smtp"><rect fill="#F1F1F1" height="62.5938" rx="2.5" ry="2.5" style="stroke:#181818;stroke-width:0.5;" width="226" x="32" y="562.2769"/><rect fill="#F1F1F1" height="10" style="stroke:#181818;stroke-width:0.5;" width="15" x="238" y="567.2769"/><rect fill="#F1F1F1" height="2" style="stroke:#181818;stroke-width:0.5;" width="4" x="236" y="569.2769"/><rect fill="#F1F1F1" height="2" style="stroke:#181818;stroke-width:0.5;" width="4" x="236" y="573.2769"/><text fill="#000000" font-family="sans-serif" font-size="14" font-style="italic" lengthAdjust="spacing" textLength="110" x="85" y="595.272">&#171;smtp externo&#187;</text><text fill="#000000" font-family="sans-serif" font-size="14" lengthAdjust="spacing" textLength="186" x="47" y="611.5689">Servidor de Envio de E-mail</text></g><!--entity http_auth--><g id="elem_http_auth"><ellipse cx="519" cy="593.5769" fill="#F1F1F1" rx="8" ry="8" style="stroke:#181818;stroke-width:0.5;"/><text fill="#000000" font-family="sans-serif" font-size="14" lengthAdjust="spacing" textLength="72" x="483" y="623.572">HTTP auth</text></g><!--entity db_auth--><g id="elem_db_auth"><path d="M493.5,801.1669 C493.5,791.1669 544,791.1669 544,791.1669 C544,791.1669 594.5,791.1669 594.5,801.1669 L594.5,826.4638 C594.5,836.4638 544,836.4638 544,836.4638 C544,836.4638 493.5,836.4638 493.5,826.4638 L493.5,801.1669 " fill="#FFA500" style="stroke:#181818;stroke-width:0.5;"/><path d="M493.5,801.1669 C493.5,811.1669 544,811.1669 544,811.1669 C544,811.1669 594.5,811.1669 594.5,801.1669 " fill="none" style="stroke:#181818;stroke-width:0.5;"/><text fill="#000000" font-family="sans-serif" font-size="14" lengthAdjust="spacing" textLength="81" x="503.5" y="828.162">PostgreSQL</text></g><!--entity keycloak--><g id="elem_keycloak"><rect fill="#228B22" height="46.2969" rx="2.5" ry="2.5" style="stroke:#181818;stroke-width:0.5;" width="187" x="450.5" y="684.8769"/><rect fill="#228B22" height="10" style="stroke:#181818;stroke-width:0.5;" width="15" x="617.5" y="689.8769"/><rect fill="#228B22" height="2" style="stroke:#181818;stroke-width:0.5;" width="4" x="615.5" y="691.8769"/><rect fill="#228B22" height="2" style="stroke:#181818;stroke-width:0.5;" width="4" x="615.5" y="695.8769"/><text fill="#000000" font-family="sans-serif" font-size="14" lengthAdjust="spacing" textLength="147" x="465.5" y="717.872">KeyCloak Auth Server</text></g><!--entity admin--><g id="elem_admin"><ellipse cx="623" cy="51.2969" fill="#F1F1F1" rx="8" ry="8" style="stroke:#181818;stroke-width:0.5;"/><path d="M623,59.2969 L623,86.2969 M610,67.2969 L636,67.2969 M623,86.2969 L610,101.2969 M623,86.2969 L636,101.2969 " fill="none" style="stroke:#181818;stroke-width:0.5;"/><text fill="#000000" font-family="sans-serif" font-size="14" lengthAdjust="spacing" textLength="95" x="575.5" y="115.792">Administrador</text></g><!--entity gestor--><g id="elem_gestor"><ellipse cx="333" cy="51.2969" fill="#F1F1F1" rx="8" ry="8" style="stroke:#181818;stroke-width:0.5;"/><path d="M333,59.2969 L333,86.2969 M320,67.2969 L346,67.2969 M333,86.2969 L320,101.2969 M333,86.2969 L346,101.2969 " fill="none" style="stroke:#181818;stroke-width:0.5;"/><text fill="#000000" font-family="sans-serif" font-size="14" lengthAdjust="spacing" textLength="47" x="309.5" y="115.792">Gestor</text></g><!--entity prof--><g id="elem_prof"><ellipse cx="478" cy="51.2969" fill="#F1F1F1" rx="8" ry="8" style="stroke:#181818;stroke-width:0.5;"/><path d="M478,59.2969 L478,86.2969 M465,67.2969 L491,67.2969 M478,86.2969 L465,101.2969 M478,86.2969 L491,101.2969 " fill="none" style="stroke:#181818;stroke-width:0.5;"/><text fill="#000000" font-family="sans-serif" font-size="14" lengthAdjust="spacing" textLength="66" x="445" y="115.792">Professor</text></g><!--reverse link queue to api--><g id="link_queue_api"><path d="M228.5836,377.5287 C250.4136,395.9687 277.25,418.6469 301.58,439.2069 " fill="none" id="queue-backto-api" style="stroke:#181818;stroke-width:1.0;"/><polygon fill="#181818" points="224,373.6569,228.2942,382.5203,227.8197,376.8834,233.4566,376.4088,224,373.6569" style="stroke:#181818;stroke-width:1.0;"/></g><!--link queue to worker--><g id="link_queue_worker"><path d="M193.73,373.6569 C189.62,394.7769 184.5941,420.627 180.4741,441.837 " fill="none" id="queue-to-worker" style="stroke:#181818;stroke-width:1.0;"/><polygon fill="#181818" points="179.33,447.7269,184.9728,439.6547,180.2834,442.8186,177.1195,438.1293,179.33,447.7269" style="stroke:#181818;stroke-width:1.0;"/></g><!--link api to db--><g id="link_api_db"><path d="M339.53,502.7269 C340.59,523.9369 341.6604,545.6444 342.6104,564.6444 " fill="none" id="api-to-db" style="stroke:#181818;stroke-width:1.0;"/><polygon fill="#181818" points="342.91,570.6369,346.4556,561.4484,342.6603,565.6431,338.4656,561.8479,342.91,570.6369" style="stroke:#181818;stroke-width:1.0;"/></g><!--link worker to db--><g id="link_worker_db"><path d="M237.37,494.5369 C250.71,500.7069 264.29,508.0669 276,516.5769 C296.77,531.6669 312.1946,549.2736 324.8146,565.8436 " fill="none" id="worker-to-db" style="stroke:#181818;stroke-width:1.0;"/><polygon fill="#181818" points="328.45,570.6169,326.1791,561.0334,325.4205,566.6392,319.8147,565.8806,328.45,570.6169" style="stroke:#181818;stroke-width:1.0;"/></g><!--link worker to smtp--><g id="link_worker_smtp"><path d="M169.43,494.3869 C164.68,513.4569 159.2681,535.2142 154.0281,556.2842 " fill="none" id="worker-to-smtp" style="stroke:#181818;stroke-width:1.0;"/><polygon fill="#181818" points="152.58,562.1069,158.6338,554.3383,153.7867,557.2547,150.8703,552.4075,152.58,562.1069" style="stroke:#181818;stroke-width:1.0;"/></g><!--link keycloak to db_auth--><g id="link_keycloak_db_auth"><path d="M544,731.5469 C544,749.0769 544,767.2669 544,784.6969 " fill="none" id="keycloak-to-db_auth" style="stroke:#181818;stroke-width:1.0;"/><polygon fill="#181818" points="544,790.6969,548,781.6969,544,785.6969,540,781.6969,544,790.6969" style="stroke:#181818;stroke-width:1.0;"/></g><!--link http to api--><g id="link_http_api"><path d="M346.41,359.4469 C345.2,375.3869 342.8247,406.5641 340.7847,433.4041 " fill="none" id="http-to-api" style="stroke:#181818;stroke-width:1.0;"/><polygon fill="#181818" points="340.33,439.3869,345.0006,430.7159,340.7089,434.4013,337.0236,430.1096,340.33,439.3869" style="stroke:#181818;stroke-width:1.0;"/></g><!--link http_auth to keycloak--><g id="link_http_auth_keycloak"><path d="M520.72,602.3069 C524.45,619.0769 532.0987,653.4797 537.7487,678.9097 " fill="none" id="http_auth-to-keycloak" style="stroke:#181818;stroke-width:1.0;"/><polygon fill="#181818" points="539.05,684.7669,541.0028,675.1136,537.9656,679.8859,533.1932,676.8487,539.05,684.7669" style="stroke:#181818;stroke-width:1.0;"/></g><!--link admin to web_admin--><g id="link_admin_web_admin"><path d="M623,119.4969 C623,138.4369 623,155.1169 623,172.9569 " fill="none" id="admin-to-web_admin" style="stroke:#181818;stroke-width:1.0;"/><polygon fill="#181818" points="623,178.9569,627,169.9569,623,173.9569,619,169.9569,623,178.9569" style="stroke:#181818;stroke-width:1.0;"/></g><!--link gestor to web_gestor--><g id="link_gestor_web_gestor"><path d="M333,119.4969 C333,138.4369 333,155.1169 333,172.9569 " fill="none" id="gestor-to-web_gestor" style="stroke:#181818;stroke-width:1.0;"/><polygon fill="#181818" points="333,178.9569,337,169.9569,333,173.9569,329,169.9569,333,178.9569" style="stroke:#181818;stroke-width:1.0;"/></g><!--link prof to web_professor--><g id="link_prof_web_professor"><path d="M478,119.4969 C478,138.4369 478,155.1169 478,172.9569 " fill="none" id="prof-to-web_professor" style="stroke:#181818;stroke-width:1.0;"/><polygon fill="#181818" points="478,178.9569,482,169.9569,478,173.9569,474,169.9569,478,178.9569" style="stroke:#181818;stroke-width:1.0;"/></g><!--link web_admin to http--><g id="link_web_admin_http"><path d="M586.14,242.0269 C575.21,250.3069 562.97,258.8569 551,265.6869 C479.8,306.2969 390.8008,335.898 361.6408,345.118 " fill="none" id="web_admin-to-http" style="stroke:#181818;stroke-width:1.0;stroke-dasharray:7.0,7.0;"/><polygon fill="#181818" points="355.92,346.9269,365.7072,348.0275,360.6874,345.4195,363.2954,340.3997,355.92,346.9269" style="stroke:#181818;stroke-width:1.0;"/></g><!--link web_gestor to http--><g id="link_web_gestor_http"><path d="M336.11,242.0769 C339.38,274.3869 343.7067,317.1473 345.6067,335.9473 " fill="none" id="web_gestor-to-http" style="stroke:#181818;stroke-width:1.0;stroke-dasharray:7.0,7.0;"/><polygon fill="#181818" points="346.21,341.9169,349.2848,332.5603,345.7072,336.9422,341.3253,333.3647,346.21,341.9169" style="stroke:#181818;stroke-width:1.0;"/></g><!--link web_professor to http--><g id="link_web_professor_http"><path d="M448.93,242.0769 C418.32,274.3869 376.2852,318.7599 358.4852,337.5599 " fill="none" id="web_professor-to-http" style="stroke:#181818;stroke-width:1.0;stroke-dasharray:7.0,7.0;"/><polygon fill="#181818" points="354.36,341.9169,363.4524,338.1316,357.7977,338.2861,357.6432,332.6314,354.36,341.9169" style="stroke:#181818;stroke-width:1.0;"/></g><!--link api to http_auth--><g id="link_api_http_auth"><path d="M389.32,502.7569 C396.64,507.3169 404.05,512.0169 411,516.5769 C448.57,541.2369 487.0824,569.1375 505.3324,582.5275 " fill="none" id="api-to-http_auth" style="stroke:#181818;stroke-width:1.0;stroke-dasharray:7.0,7.0;"/><polygon fill="#181818" points="510.17,586.0769,505.2798,577.5278,506.1387,583.1191,500.5474,583.9779,510.17,586.0769" style="stroke:#181818;stroke-width:1.0;"/></g><!--link web_admin to http_auth--><g id="link_web_admin_http_auth"><path d="M614.67,241.9369 C592.54,323.0269 534.7795,534.7385 522.7295,578.8985 " fill="none" id="web_admin-to-http_auth" style="stroke:#181818;stroke-width:1.0;stroke-dasharray:7.0,7.0;"/><polygon fill="#181818" points="521.15,584.6869,527.3781,577.0573,522.4662,579.8632,519.6603,574.9513,521.15,584.6869" style="stroke:#181818;stroke-width:1.0;"/></g><!--link web_gestor to http_auth--><g id="link_web_gestor_http_auth"><path d="M380.4,242.1569 C391.64,251.2169 402.74,261.9069 411,273.6869 C430.38,301.3169 500.9825,532.9839 514.9325,579.0939 " fill="none" id="web_gestor-to-http_auth" style="stroke:#181818;stroke-width:1.0;stroke-dasharray:7.0,7.0;"/><polygon fill="#181818" points="516.67,584.8369,517.8924,575.0642,515.2221,580.0511,510.2352,577.3808,516.67,584.8369" style="stroke:#181818;stroke-width:1.0;"/></g><!--link web_professor to http_auth--><g id="link_web_professor_http_auth"><path d="M481.29,241.9369 C490.01,323.0269 512.7583,534.5613 517.5083,578.7213 " fill="none" id="web_professor-to-http_auth" style="stroke:#181818;stroke-width:1.0;stroke-dasharray:7.0,7.0;"/><polygon fill="#181818" points="518.15,584.6869,521.1645,575.3107,517.6153,579.7156,513.2104,576.1663,518.15,584.6869" style="stroke:#181818;stroke-width:1.0;"/></g><!--SRC=[VLD1Rjim4Bpp5Glxq9Dzwia81BXDanefKBKEsaDH19IuTbXBf49ISOoYh-aJ-eHyBCkLHCjDquj4pWntXylTe4E5i7HthGuOMYVX2ph_-Dl2w_c34AAiRAjWiZ81dS4m0Ub1znkOvhB2IuTeuAS0A6tTM8Ccm4IgMXiMxx6uuHsSdTMFVrHRsImx5M_H1-kIkjk-B6-StQ3tenC9EJdqY-mRgn0cXIntQDI4NRBxZIm9VtzzdODiD0Uw3Q4XMiaW2-c9pQqFMuVhJn-OLmLCFpffjdYY-enAUxZGbMJLNOijZeJVpd_Goi8oNtsFF6KZa_JDCfYU8pRhtU5DrOwbNwtReMFrdfUHMwExrufkIFTvP-wrvSMibhfYfQz3Gu7vXm_nVM8911sD6MTjCyiwRuHq7cVAxWsXAGSBUr0L17JClp7QnroZ8iistBvGOMRw4j_4tV_hp99n3Q_myBQoSWVBICHIzFNPuQ5aOdfX7RKDzsAyT2AEvhl4vFSLh0Q3FbRHeK8HhIKnLK8ahmaTOiO8on3pYSKoThRsmKbwcmK_S4J4ufARc96kdyKY7xgKqTYp7AcC64WB6sV9br6Y6vVqFiC0YNumPZtOnus14fOcOHmwDfyupk5yddNDFXgs4-muJWccQ5V3zMEV34HNrEUnZ_XV2Ox4yopCFG40]--></g></svg>