<?xml version="1.0" encoding="us-ascii" standalone="no"?><svg xmlns="http://www.w3.org/2000/svg" xmlns:xlink="http://www.w3.org/1999/xlink" contentStyleType="text/css" height="612px" preserveAspectRatio="none" style="width:720px;height:612px;background:#FFFFFF;" version="1.1" viewBox="0 0 720 612" width="720px" zoomAndPan="magnify"><defs/><g><text fill="#000000" font-family="sans-serif" font-size="14" font-weight="bold" lengthAdjust="spacing" textLength="180" x="263" y="22.9951">Arquitetura Vers&#227;o 3.x</text><!--cluster web--><g id="cluster_web"><path d="M8.5,143.0869 L121.5,143.0869 A3.75,3.75 0 0 1 124,145.5869 L131,165.3838 L273.5,165.3838 A2.5,2.5 0 0 1 276,167.8838 L276,366.0369 A2.5,2.5 0 0 1 273.5,368.5369 L8.5,368.5369 A2.5,2.5 0 0 1 6,366.0369 L6,145.5869 A2.5,2.5 0 0 1 8.5,143.0869 " fill="#98FB98" style="stroke:#000000;stroke-width:1.5;"/><line style="stroke:#000000;stroke-width:1.5;" x1="6" x2="131" y1="165.3838" y2="165.3838"/><text fill="#000000" font-family="sans-serif" font-size="14" font-weight="bold" lengthAdjust="spacing" textLength="112" x="10" y="158.082">Frontend Web</text></g><!--cluster backend--><g id="cluster_backend"><polygon fill="none" points="308,262.3869,318,252.3869,703,252.3869,703,585.2769,693,595.2769,308,595.2769,308,262.3869" style="stroke:#181818;stroke-width:1.0;"/><line style="stroke:#181818;stroke-width:1.0;" x1="693" x2="703" y1="262.3869" y2="252.3869"/><line style="stroke:#181818;stroke-width:1.0;" x1="308" x2="693" y1="262.3869" y2="262.3869"/><line style="stroke:#181818;stroke-width:1.0;" x1="693" x2="693" y1="262.3869" y2="595.2769"/><text fill="#000000" font-family="sans-serif" font-size="14" font-weight="bold" lengthAdjust="spacing" textLength="67" x="468" y="278.382">backend</text></g><!--entity web_admin--><g id="elem_web_admin"><rect fill="#F1F1F1" height="46.2969" rx="2.5" ry="2.5" style="stroke:#181818;stroke-width:0.5;" width="82" x="30" y="186.0869"/><rect fill="#F1F1F1" height="10" style="stroke:#181818;stroke-width:0.5;" width="15" x="92" y="191.0869"/><rect fill="#F1F1F1" height="2" style="stroke:#181818;stroke-width:0.5;" width="4" x="90" y="193.0869"/><rect fill="#F1F1F1" height="2" style="stroke:#181818;stroke-width:0.5;" width="4" x="90" y="197.0869"/><text fill="#000000" font-family="sans-serif" font-size="14" lengthAdjust="spacing" textLength="42" x="45" y="219.082">admin</text></g><!--entity web_gestor--><g id="elem_web_gestor"><rect fill="#F1F1F1" height="46.2969" rx="2.5" ry="2.5" style="stroke:#181818;stroke-width:0.5;" width="85" x="147.5" y="186.0869"/><rect fill="#F1F1F1" height="10" style="stroke:#181818;stroke-width:0.5;" width="15" x="212.5" y="191.0869"/><rect fill="#F1F1F1" height="2" style="stroke:#181818;stroke-width:0.5;" width="4" x="210.5" y="193.0869"/><rect fill="#F1F1F1" height="2" style="stroke:#181818;stroke-width:0.5;" width="4" x="210.5" y="197.0869"/><text fill="#000000" font-family="sans-serif" font-size="14" lengthAdjust="spacing" textLength="45" x="162.5" y="219.082">gestor</text></g><!--entity web_professor--><g id="elem_web_professor"><rect fill="#F1F1F1" height="46.2969" rx="2.5" ry="2.5" style="stroke:#181818;stroke-width:0.5;" width="106" x="30" y="298.2369"/><rect fill="#F1F1F1" height="10" style="stroke:#181818;stroke-width:0.5;" width="15" x="116" y="303.2369"/><rect fill="#F1F1F1" height="2" style="stroke:#181818;stroke-width:0.5;" width="4" x="114" y="305.2369"/><rect fill="#F1F1F1" height="2" style="stroke:#181818;stroke-width:0.5;" width="4" x="114" y="309.2369"/><text fill="#000000" font-family="sans-serif" font-size="14" lengthAdjust="spacing" textLength="66" x="45" y="331.232">professor</text></g><!--entity HTTP--><g id="elem_HTTP"><ellipse cx="366" cy="321.3869" fill="#F1F1F1" rx="8" ry="8" style="stroke:#181818;stroke-width:0.5;"/><text fill="#000000" font-family="sans-serif" font-size="14" lengthAdjust="spacing" textLength="37" x="347.5" y="351.382">HTTP</text></g><!--entity db--><g id="elem_db"><path d="M324.5,535.3269 C324.5,525.3269 375,525.3269 375,525.3269 C375,525.3269 425.5,525.3269 425.5,535.3269 L425.5,560.6238 C425.5,570.6238 375,570.6238 375,570.6238 C375,570.6238 324.5,570.6238 324.5,560.6238 L324.5,535.3269 " fill="#FFA500" style="stroke:#181818;stroke-width:0.5;"/><path d="M324.5,535.3269 C324.5,545.3269 375,545.3269 375,545.3269 C375,545.3269 425.5,545.3269 425.5,535.3269 " fill="none" style="stroke:#181818;stroke-width:0.5;"/><text fill="#000000" font-family="sans-serif" font-size="14" lengthAdjust="spacing" textLength="81" x="334.5" y="562.322">PostgreSQL</text></g><!--entity queue--><g id="elem_queue"><path d="M464.5,308.7369 C464.5,298.7369 507,298.7369 507,298.7369 C507,298.7369 549.5,298.7369 549.5,308.7369 L549.5,334.0338 C549.5,344.0338 507,344.0338 507,344.0338 C507,344.0338 464.5,344.0338 464.5,334.0338 L464.5,308.7369 " fill="#FFA500" style="stroke:#181818;stroke-width:0.5;"/><path d="M464.5,308.7369 C464.5,318.7369 507,318.7369 507,318.7369 C507,318.7369 549.5,318.7369 549.5,308.7369 " fill="none" style="stroke:#181818;stroke-width:0.5;"/><text fill="#000000" font-family="sans-serif" font-size="14" lengthAdjust="spacing" textLength="65" x="474.5" y="335.732">Redis Fila</text></g><!--entity api--><g id="elem_api"><rect fill="#F1F1F1" height="46.2969" rx="2.5" ry="2.5" style="stroke:#181818;stroke-width:0.5;" width="114" x="324" y="410.3869"/><rect fill="#F1F1F1" height="10" style="stroke:#181818;stroke-width:0.5;" width="15" x="418" y="415.3869"/><rect fill="#F1F1F1" height="2" style="stroke:#181818;stroke-width:0.5;" width="4" x="416" y="417.3869"/><rect fill="#F1F1F1" height="2" style="stroke:#181818;stroke-width:0.5;" width="4" x="416" y="421.3869"/><text fill="#000000" font-family="sans-serif" font-size="14" lengthAdjust="spacing" textLength="74" x="339" y="443.382">Django API</text></g><!--entity worker--><g id="elem_worker"><rect fill="#F1F1F1" height="46.2969" rx="2.5" ry="2.5" style="stroke:#181818;stroke-width:0.5;" width="142" x="473" y="410.3869"/><rect fill="#F1F1F1" height="10" style="stroke:#181818;stroke-width:0.5;" width="15" x="595" y="415.3869"/><rect fill="#F1F1F1" height="2" style="stroke:#181818;stroke-width:0.5;" width="4" x="593" y="417.3869"/><rect fill="#F1F1F1" height="2" style="stroke:#181818;stroke-width:0.5;" width="4" x="593" y="421.3869"/><text fill="#000000" font-family="sans-serif" font-size="14" lengthAdjust="spacing" textLength="102" x="488" y="443.382">Django Worker</text></g><!--entity smtp--><g id="elem_smtp"><rect fill="#F1F1F1" height="62.5938" rx="2.5" ry="2.5" style="stroke:#181818;stroke-width:0.5;" width="226" x="461" y="516.6869"/><rect fill="#F1F1F1" height="10" style="stroke:#181818;stroke-width:0.5;" width="15" x="667" y="521.6869"/><rect fill="#F1F1F1" height="2" style="stroke:#181818;stroke-width:0.5;" width="4" x="665" y="523.6869"/><rect fill="#F1F1F1" height="2" style="stroke:#181818;stroke-width:0.5;" width="4" x="665" y="527.6869"/><text fill="#000000" font-family="sans-serif" font-size="14" font-style="italic" lengthAdjust="spacing" textLength="110" x="514" y="549.682">&#171;smtp externo&#187;</text><text fill="#000000" font-family="sans-serif" font-size="14" lengthAdjust="spacing" textLength="186" x="476" y="565.9789">Servidor de Envio de E-mail</text></g><!--entity admin--><g id="elem_admin"><ellipse cx="162" cy="51.2969" fill="#F1F1F1" rx="8" ry="8" style="stroke:#181818;stroke-width:0.5;"/><path d="M162,59.2969 L162,86.2969 M149,67.2969 L175,67.2969 M162,86.2969 L149,101.2969 M162,86.2969 L175,101.2969 " fill="none" style="stroke:#181818;stroke-width:0.5;"/><text fill="#000000" font-family="sans-serif" font-size="14" lengthAdjust="spacing" textLength="95" x="114.5" y="115.792">Administrador</text></g><!--entity gestor--><g id="elem_gestor"><ellipse cx="268" cy="51.2969" fill="#F1F1F1" rx="8" ry="8" style="stroke:#181818;stroke-width:0.5;"/><path d="M268,59.2969 L268,86.2969 M255,67.2969 L281,67.2969 M268,86.2969 L255,101.2969 M268,86.2969 L281,101.2969 " fill="none" style="stroke:#181818;stroke-width:0.5;"/><text fill="#000000" font-family="sans-serif" font-size="14" lengthAdjust="spacing" textLength="47" x="244.5" y="115.792">Gestor</text></g><!--entity prof--><g id="elem_prof"><ellipse cx="360" cy="51.2969" fill="#F1F1F1" rx="8" ry="8" style="stroke:#181818;stroke-width:0.5;"/><path d="M360,59.2969 L360,86.2969 M347,67.2969 L373,67.2969 M360,86.2969 L347,101.2969 M360,86.2969 L373,101.2969 " fill="none" style="stroke:#181818;stroke-width:0.5;"/><text fill="#000000" font-family="sans-serif" font-size="14" lengthAdjust="spacing" textLength="66" x="327" y="115.792">Professor</text></g><!--link HTTP to api--><g id="link_HTTP_api"><path d="M367.08,330.3069 C369.32,346.7869 373.7488,379.322 377.1288,404.092 " fill="none" id="HTTP-to-api" style="stroke:#181818;stroke-width:1.0;"/><polygon fill="#181818" points="377.94,410.0369,380.6864,400.5787,377.264,405.0828,372.7599,401.6603,377.94,410.0369" style="stroke:#181818;stroke-width:1.0;"/></g><!--reverse link queue to api--><g id="link_queue_api"><path d="M477.2834,348.3566 C455.4534,367.4466 428.53,390.9869 406.58,410.1669 " fill="none" id="queue-backto-api" style="stroke:#181818;stroke-width:1.0;"/><polygon fill="#181818" points="481.8,344.4069,472.3919,347.3204,478.0362,347.6983,477.6582,353.3425,481.8,344.4069" style="stroke:#181818;stroke-width:1.0;"/></g><!--link queue to worker--><g id="link_queue_worker"><path d="M514.4,344.4069 C520.81,363.4969 528.1275,385.2998 534.5775,404.4798 " fill="none" id="queue-to-worker" style="stroke:#181818;stroke-width:1.0;"/><polygon fill="#181818" points="536.49,410.1669,537.4126,400.3613,534.8963,405.4277,529.8299,402.9113,536.49,410.1669" style="stroke:#181818;stroke-width:1.0;"/></g><!--link api to db--><g id="link_api_db"><path d="M379.8,457.0169 C378.75,476.7569 377.5378,499.3153 376.4978,518.9253 " fill="none" id="api-to-db" style="stroke:#181818;stroke-width:1.0;"/><polygon fill="#181818" points="376.18,524.9169,380.651,516.1413,376.4448,519.9239,372.6623,515.7177,376.18,524.9169" style="stroke:#181818;stroke-width:1.0;"/></g><!--link worker to db--><g id="link_worker_db"><path d="M510.21,457.0169 C480.54,476.7569 442.6357,501.9838 413.1557,521.5938 " fill="none" id="worker-to-db" style="stroke:#181818;stroke-width:1.0;"/><polygon fill="#181818" points="408.16,524.9169,417.8689,523.2627,412.3231,522.1476,413.4381,516.6017,408.16,524.9169" style="stroke:#181818;stroke-width:1.0;"/></g><!--link worker to smtp--><g id="link_worker_smtp"><path d="M550,457.0169 C554.55,474.0669 559.304,491.8895 564.304,510.6395 " fill="none" id="worker-to-smtp" style="stroke:#181818;stroke-width:1.0;"/><polygon fill="#181818" points="565.85,516.4369,567.396,506.7101,564.5617,511.6057,559.6661,508.7714,565.85,516.4369" style="stroke:#181818;stroke-width:1.0;"/></g><!--link admin to web--><g id="link_admin_web"><path d="M209.79,110.4669 C215.52,113.5169 221.34,116.4669 227,119.0869 C236.44,123.4669 242.09,119.3069 249,127.0869 C251.9775,130.4419 254.5125,134.1744 256.6685,138.1438 C257.2075,139.1361 257.7228,140.1432 258.2155,141.163 C258.4618,141.6729 256.2145,136.726 256.4495,137.242 " fill="none" id="admin-to-web" style="stroke:#181818;stroke-width:1.0;"/><polygon fill="#181818" points="258.9375,142.7018,258.8455,132.8534,256.8642,138.1519,251.5657,136.1707,258.9375,142.7018" style="stroke:#181818;stroke-width:1.0;"/></g><!--link gestor to web--><g id="link_gestor_web"><path d="M268,119.4969 C268,124.0044 268,128.7216 268,133.5315 C268,135.9365 268,138.3647 268,140.8015 C268,141.4107 268,136.0204 268,136.6305 " fill="none" id="gestor-to-web" style="stroke:#181818;stroke-width:1.0;"/><polygon fill="#181818" points="268,142.6305,272,133.6305,268,137.6305,264,133.6305,268,142.6305" style="stroke:#181818;stroke-width:1.0;"/></g><!--link prof to web--><g id="link_prof_web"><path d="M332.65,119.4969 C319.51,137.5269 303.9325,158.9119 291.3613,176.1706 C288.2184,180.4853 285.2635,184.5421 282.5815,188.2241 C281.2406,190.0651 279.9678,191.8124 278.7739,193.4514 C278.177,194.2709 277.5998,195.0634 277.0436,195.8269 C276.7655,196.2086 276.4927,196.5832 276.2253,196.9503 C276.1584,197.042 279.6247,192.2836 279.5585,192.3745 " fill="none" id="prof-to-web" style="stroke:#181818;stroke-width:1.0;"/><polygon fill="#181818" points="276.0257,197.2242,284.558,192.3048,278.9697,193.1828,278.0918,187.5944,276.0257,197.2242" style="stroke:#181818;stroke-width:1.0;"/></g><!--link web to HTTP--><g id="link_web_HTTP"><path d="M276.0668,219.3055 C276.2498,219.5112 276.4354,219.7199 276.6237,219.9314 C277.0001,220.3545 277.3868,220.7891 277.7834,221.2349 C278.5765,222.1263 279.4091,223.0621 280.2778,224.0384 C287.2275,231.8494 296.4888,242.2581 306.355,253.3469 C326.0875,275.5244 344.252,295.939 355.172,308.214 " fill="none" id="web-to-HTTP" style="stroke:#181818;stroke-width:1.0;stroke-dasharray:7.0,7.0;"/><polygon fill="#181818" points="359.16,312.6969,356.1666,303.3139,355.8367,308.9612,350.1894,308.6313,359.16,312.6969" style="stroke:#181818;stroke-width:1.0;"/></g><!--SRC=[RPB1IiD048Rl-nH3FASNRw442jeg24PRx454DjrfM9lifhkRjY0-ZO_YYpaxQMi3NfATVxva_icVe4EDC77RJWSCdPFmWix_V5ku7Xs4QELg8ok4PEgi2MWKBB5CG7hOOmbNXQnnvX0DV0g0bMrQQz04IAHgj3bnxrmDWGfziEvCzEKGQPrTe_SNr5aHNq8OgyXNIGR9Li86D5bqQxb2k5ii2XAK3BAKdhZ2-b0vd3yzyDiKcNzqqbGue9vHQGzJNKkcjXrsU06-tdpGoSAak7-BVTdg2tLftGOTD_PyZBqvkfrMrW6PlJKxRVcGDbBNJFecj30UymqFPD_OF1VqPDm0KcNt9isFW-WAQTTIpSP8wGsUgFDK1e-YAadeE_zhLCVfyPDcanYKzi59ifpnYXnTDkDyM3b6bHMdC5YDqGZ1z9yVB4LF3wI83WGH_wLH54Ovx_qB]--></g></svg>