<?xml version="1.0" encoding="UTF-8" standalone="no"?>
<!DOCTYPE svg PUBLIC "-//W3C//DTD SVG 1.1//EN"
 "http://www.w3.org/Graphics/SVG/1.1/DTD/svg11.dtd">
<!-- Generated by graphviz version 9.0.0 (20230911.1827)
 -->
<!-- Title: D Pages: 1 -->
<svg width="557pt" height="188pt"
 viewBox="0.00 0.00 557.14 188.00" xmlns="http://www.w3.org/2000/svg" xmlns:xlink="http://www.w3.org/1999/xlink">
<g id="graph0" class="graph" transform="scale(1 1) rotate(0) translate(4 184)">
<title>D</title>
<polygon fill="white" stroke="none" points="-4,4 -4,-184 553.14,-184 553.14,4 -4,4"/>
<!-- FUJI Auth -->
<g id="node1" class="node">
<title>FUJI Auth</title>
<ellipse fill="lightgreen" stroke="lightgreen" cx="316.13" cy="-162" rx="60.15" ry="18"/>
<text text-anchor="middle" x="316.13" y="-157.32" font-family="Times,serif" font-size="14.00">FUJI Auth</text>
</g>
<!-- Artes Marciais Online -->
<g id="node2" class="node">
<title>Artes Marciais Online</title>
<ellipse fill="none" stroke="black" cx="120.13" cy="-90" rx="120.13" ry="18"/>
<text text-anchor="middle" x="120.13" y="-85.33" font-family="Times,serif" font-size="14.00">Artes Marciais Online</text>
</g>
<!-- FUJI Auth&#45;&gt;Artes Marciais Online -->
<g id="edge2" class="edge">
<title>FUJI Auth&#45;&gt;Artes Marciais Online</title>
<path fill="none" stroke="black" d="M275.29,-148.32C244.92,-138.02 203.4,-123.3 170.91,-111.35"/>
<polygon fill="black" stroke="black" points="172.28,-108.12 161.68,-107.94 169.85,-114.69 172.28,-108.12"/>
</g>
<!-- FUJI Web -->
<g id="node4" class="node">
<title>FUJI Web</title>
<ellipse fill="none" stroke="black" cx="316.13" cy="-90" rx="58.05" ry="18"/>
<text text-anchor="middle" x="316.13" y="-85.33" font-family="Times,serif" font-size="14.00">FUJI Web</text>
</g>
<!-- FUJI Auth&#45;&gt;FUJI Web -->
<g id="edge6" class="edge">
<title>FUJI Auth&#45;&gt;FUJI Web</title>
<path fill="none" stroke="black" d="M310.21,-143.7C309.46,-136.41 309.22,-127.73 309.48,-119.54"/>
<polygon fill="black" stroke="black" points="312.97,-119.82 310.13,-109.61 305.99,-119.36 312.97,-119.82"/>
</g>
<!-- FUJI Alunos -->
<g id="node5" class="node">
<title>FUJI Alunos</title>
<ellipse fill="none" stroke="black" cx="462.13" cy="-90" rx="70.15" ry="18"/>
<text text-anchor="middle" x="462.13" y="-85.33" font-family="Times,serif" font-size="14.00">FUJI Alunos</text>
</g>
<!-- FUJI Auth&#45;&gt;FUJI Alunos -->
<g id="edge8" class="edge">
<title>FUJI Auth&#45;&gt;FUJI Alunos</title>
<path fill="none" stroke="black" d="M342.81,-145.46C363.1,-135.15 391.38,-121.53 415.36,-110.49"/>
<polygon fill="black" stroke="black" points="416.67,-113.74 424.31,-106.4 413.76,-107.37 416.67,-113.74"/>
</g>
<!-- Artes Marciais Online&#45;&gt;FUJI Auth -->
<g id="edge1" class="edge">
<title>Artes Marciais Online&#45;&gt;FUJI Auth</title>
<path fill="none" stroke="black" d="M169.91,-106.73C201.17,-117.45 241.07,-131.66 271.33,-142.86"/>
<polygon fill="black" stroke="black" points="270,-146.1 280.6,-146.31 272.44,-139.54 270,-146.1"/>
</g>
<!-- FUJI Aplicação -->
<g id="node3" class="node">
<title>FUJI Aplicação</title>
<ellipse fill="none" stroke="black" cx="389.13" cy="-18" rx="83.83" ry="18"/>
<text text-anchor="middle" x="389.13" y="-13.32" font-family="Times,serif" font-size="14.00">FUJI Aplicação</text>
</g>
<!-- Artes Marciais Online&#45;&gt;FUJI Aplicação -->
<g id="edge3" class="edge">
<title>Artes Marciais Online&#45;&gt;FUJI Aplicação</title>
<path fill="none" stroke="black" d="M178.5,-73.81C222.09,-62.47 281.58,-46.99 326.23,-35.37"/>
<polygon fill="black" stroke="black" points="326.98,-38.79 335.77,-32.88 325.21,-32.02 326.98,-38.79"/>
</g>
<!-- FUJI Aplicação&#45;&gt;FUJI Auth -->
<g id="edge10" class="edge">
<title>FUJI Aplicação&#45;&gt;FUJI Auth</title>
<path fill="none" stroke="black" d="M449.53,-30.85C504.11,-44.31 571.6,-69.52 541.13,-108 521.76,-132.46 442.92,-146.76 384,-154.22"/>
<polygon fill="black" stroke="black" points="383.88,-150.7 374.38,-155.39 384.73,-157.65 383.88,-150.7"/>
</g>
<!-- FUJI Web&#45;&gt;FUJI Auth -->
<g id="edge5" class="edge">
<title>FUJI Web&#45;&gt;FUJI Auth</title>
<path fill="none" stroke="black" d="M322.02,-108.1C322.78,-115.37 323.04,-124.04 322.78,-132.24"/>
<polygon fill="black" stroke="black" points="319.29,-131.98 322.14,-142.19 326.28,-132.43 319.29,-131.98"/>
</g>
<!-- FUJI Web&#45;&gt;FUJI Aplicação -->
<g id="edge4" class="edge">
<title>FUJI Web&#45;&gt;FUJI Aplicação</title>
<path fill="none" stroke="black" d="M333.43,-72.41C342.3,-63.91 353.28,-53.37 363.15,-43.91"/>
<polygon fill="black" stroke="black" points="365.56,-46.45 370.35,-37 360.71,-41.4 365.56,-46.45"/>
</g>
<!-- FUJI Alunos&#45;&gt;FUJI Auth -->
<g id="edge7" class="edge">
<title>FUJI Alunos&#45;&gt;FUJI Auth</title>
<path fill="none" stroke="black" d="M434.67,-106.93C413.94,-117.45 385.21,-131.27 361.17,-142.31"/>
<polygon fill="black" stroke="black" points="359.88,-139.05 352.23,-146.38 362.78,-145.42 359.88,-139.05"/>
</g>
<!-- FUJI Alunos&#45;&gt;FUJI Aplicação -->
<g id="edge9" class="edge">
<title>FUJI Alunos&#45;&gt;FUJI Aplicação</title>
<path fill="none" stroke="black" d="M444.83,-72.41C435.96,-63.91 424.97,-53.37 415.11,-43.91"/>
<polygon fill="black" stroke="black" points="417.54,-41.4 407.9,-37 412.7,-46.45 417.54,-41.4"/>
</g>
</g>
</svg>
