<?xml version="1.0" encoding="UTF-8" standalone="no"?>
<!DOCTYPE svg PUBLIC "-//W3C//DTD SVG 1.1//EN"
 "http://www.w3.org/Graphics/SVG/1.1/DTD/svg11.dtd">
<!-- Generated by graphviz version 9.0.0 (20230911.1827)
 -->
<!-- Title: D Pages: 1 -->
<svg width="195pt" height="188pt"
 viewBox="0.00 0.00 194.98 188.00" xmlns="http://www.w3.org/2000/svg" xmlns:xlink="http://www.w3.org/1999/xlink">
<g id="graph0" class="graph" transform="scale(1 1) rotate(0) translate(4 184)">
<title>D</title>
<polygon fill="white" stroke="none" points="-4,4 -4,-184 190.98,-184 190.98,4 -4,4"/>
<!-- FUJI Auth -->
<g id="node1" class="node">
<title>FUJI Auth</title>
<ellipse fill="lightgreen" stroke="lightgreen" cx="60.15" cy="-162" rx="60.15" ry="18"/>
<text text-anchor="middle" x="60.15" y="-157.32" font-family="Times,serif" font-size="14.00">FUJI Auth</text>
</g>
<!-- FUJI Web -->
<g id="node2" class="node">
<title>FUJI Web</title>
<ellipse fill="none" stroke="black" cx="60.15" cy="-90" rx="58.05" ry="18"/>
<text text-anchor="middle" x="60.15" y="-85.33" font-family="Times,serif" font-size="14.00">FUJI Web</text>
</g>
<!-- FUJI Auth&#45;&gt;FUJI Web -->
<g id="edge3" class="edge">
<title>FUJI Auth&#45;&gt;FUJI Web</title>
<path fill="none" stroke="black" d="M54.24,-143.7C53.48,-136.41 53.24,-127.73 53.51,-119.54"/>
<polygon fill="black" stroke="black" points="56.99,-119.82 54.16,-109.61 50.01,-119.36 56.99,-119.82"/>
</g>
<!-- FUJI Web&#45;&gt;FUJI Auth -->
<g id="edge2" class="edge">
<title>FUJI Web&#45;&gt;FUJI Auth</title>
<path fill="none" stroke="black" d="M66.05,-108.1C66.81,-115.37 67.06,-124.04 66.81,-132.24"/>
<polygon fill="black" stroke="black" points="63.32,-131.98 66.16,-142.19 70.3,-132.43 63.32,-131.98"/>
</g>
<!-- FUJI Aplicação -->
<g id="node3" class="node">
<title>FUJI Aplicação</title>
<ellipse fill="none" stroke="black" cx="103.15" cy="-18" rx="83.83" ry="18"/>
<text text-anchor="middle" x="103.15" y="-13.32" font-family="Times,serif" font-size="14.00">FUJI Aplicação</text>
</g>
<!-- FUJI Web&#45;&gt;FUJI Aplicação -->
<g id="edge1" class="edge">
<title>FUJI Web&#45;&gt;FUJI Aplicação</title>
<path fill="none" stroke="black" d="M70.56,-72.05C75.35,-64.26 81.15,-54.82 86.52,-46.08"/>
<polygon fill="black" stroke="black" points="89.5,-47.92 91.75,-37.56 83.53,-44.25 89.5,-47.92"/>
</g>
<!-- FUJI Aplicação&#45;&gt;FUJI Auth -->
<g id="edge4" class="edge">
<title>FUJI Aplicação&#45;&gt;FUJI Auth</title>
<path fill="none" stroke="black" d="M114.65,-36.07C125.52,-54.49 138.59,-84.38 127.15,-108 120.99,-120.72 110.13,-131.32 98.93,-139.61"/>
<polygon fill="black" stroke="black" points="97.06,-136.64 90.78,-145.17 101.01,-142.43 97.06,-136.64"/>
</g>
</g>
</svg>
