<?xml version="1.0" encoding="UTF-8" standalone="no"?>
<!DOCTYPE svg PUBLIC "-//W3C//DTD SVG 1.1//EN"
 "http://www.w3.org/Graphics/SVG/1.1/DTD/svg11.dtd">
<!-- Generated by graphviz version 9.0.0 (20230911.1827)
 -->
<!-- Pages: 1 -->
<svg width="603pt" height="152pt"
 viewBox="0.00 0.00 602.50 152.00" xmlns="http://www.w3.org/2000/svg" xmlns:xlink="http://www.w3.org/1999/xlink">
<g id="graph0" class="graph" transform="scale(1 1) rotate(0) translate(4 148)">
<polygon fill="white" stroke="none" points="-4,4 -4,-148 598.5,-148 598.5,4 -4,4"/>
<!-- Atleta -->
<g id="node1" class="node">
<title>Atleta</title>
<polygon fill="#ececfc" stroke="none" points="8,-4 8,-140 151.5,-140 151.5,-4 8,-4"/>
<polygon fill="none" stroke="black" points="8,-106 8,-140 151.5,-140 151.5,-106 8,-106"/>
<text text-anchor="start" x="45.25" y="-117" font-family="Helvetica,sans-Serif" font-weight="bold" font-size="20.00">Atleta</text>
<polygon fill="none" stroke="black" points="8,-72 8,-106 151.5,-106 151.5,-72 8,-72"/>
<text text-anchor="start" x="13" y="-83" font-family="Helvetica,sans-Serif" text-decoration="underline" font-size="20.00">id</text>
<polygon fill="none" stroke="black" points="8,-38 8,-72 151.5,-72 151.5,-38 8,-38"/>
<text text-anchor="start" x="13" y="-49" font-family="Helvetica,sans-Serif" text-decoration="underline" font-size="20.00">graduacao_id</text>
<polygon fill="none" stroke="black" points="8,-4 8,-38 151.5,-38 151.5,-4 8,-4"/>
<text text-anchor="start" x="13" y="-14" font-family="Helvetica,sans-Serif" font-size="20.00">data</text>
</g>
<!-- Graduacao -->
<g id="node2" class="node">
<title>Graduacao</title>
<polygon fill="none" stroke="black" points="240.5,-98.12 240.5,-127.62 363.75,-127.62 363.75,-98.12 240.5,-98.12"/>
<text text-anchor="start" x="253.75" y="-108.42" font-family="Helvetica,sans-Serif" font-weight="bold" font-size="16.00">Graduacao</text>
<polygon fill="none" stroke="black" points="240.5,-70.88 240.5,-98.12 363.75,-98.12 363.75,-70.88 240.5,-70.88"/>
<text text-anchor="start" x="245.5" y="-80.83" font-family="Helvetica,sans-Serif" text-decoration="underline" font-size="14.00">id</text>
<polygon fill="none" stroke="black" points="240.5,-43.62 240.5,-70.88 363.75,-70.88 363.75,-43.62 240.5,-43.62"/>
<text text-anchor="start" x="245.5" y="-52.58" font-family="Helvetica,sans-Serif" font-size="14.00">nome</text>
<polygon fill="none" stroke="black" points="240.5,-16.38 240.5,-43.62 363.75,-43.62 363.75,-16.38 240.5,-16.38"/>
<text text-anchor="start" x="245.5" y="-25.32" font-family="Helvetica,sans-Serif" font-size="14.00">confederacao_id</text>
</g>
<!-- Atleta&#45;&#45;Graduacao -->
<g id="edge1" class="edge">
<title>Atleta&#45;&#45;Graduacao</title>
<path fill="none" stroke="#7f7f7f" stroke-dasharray="5,2" d="M159.38,-72C183.36,-72 209.52,-72 232.76,-72"/>
<text text-anchor="start" x="202.76" y="-58.7" font-family="Times,serif" font-size="14.00">0..N</text>
<text text-anchor="start" x="159.38" y="-58.7" font-family="Times,serif" font-size="14.00">1</text>
</g>
<!-- Confederacao -->
<g id="node3" class="node">
<title>Confederacao</title>
<polygon fill="none" stroke="black" points="452.75,-84.5 452.75,-114 586.5,-114 586.5,-84.5 452.75,-84.5"/>
<text text-anchor="start" x="457.75" y="-94.8" font-family="Helvetica,sans-Serif" font-weight="bold" font-size="16.00">Confederacao</text>
<polygon fill="none" stroke="black" points="452.75,-57.25 452.75,-84.5 586.5,-84.5 586.5,-57.25 452.75,-57.25"/>
<text text-anchor="start" x="457.75" y="-67.2" font-family="Helvetica,sans-Serif" text-decoration="underline" font-size="14.00">id</text>
<polygon fill="none" stroke="black" points="452.75,-30 452.75,-57.25 586.5,-57.25 586.5,-30 452.75,-30"/>
<text text-anchor="start" x="457.75" y="-38.95" font-family="Helvetica,sans-Serif" font-size="14.00">nome</text>
</g>
<!-- Graduacao&#45;&#45;Confederacao -->
<g id="edge2" class="edge">
<title>Graduacao&#45;&#45;Confederacao</title>
<path fill="none" stroke="#7f7f7f" stroke-dasharray="5,2" d="M371.61,-72C395.02,-72 421.31,-72 445.1,-72"/>
<text text-anchor="start" x="415.1" y="-58.7" font-family="Times,serif" font-size="14.00">0..N</text>
<text text-anchor="start" x="371.61" y="-58.7" font-family="Times,serif" font-size="14.00">1</text>
</g>
</g>
</svg>
