<?xml version="1.0" encoding="us-ascii" standalone="no"?><svg xmlns="http://www.w3.org/2000/svg" xmlns:xlink="http://www.w3.org/1999/xlink" contentStyleType="text/css" height="412px" preserveAspectRatio="none" style="width:480px;height:412px;background:#FFFFFF;" version="1.1" viewBox="0 0 480 412" width="480px" zoomAndPan="magnify"><defs/><g><path d="M73.03,7 L261.03,7 A12.5,12.5 0 0 1 273.53,19.5 L273.53,33.2969 L60.53,33.2969 L60.53,19.5 A12.5,12.5 0 0 1 73.03,7 " fill="#F1F1F1" style="stroke:#F1F1F1;stroke-width:1.0;"/><rect fill="none" height="257.2969" rx="12.5" ry="12.5" style="stroke:#181818;stroke-width:0.5;" width="213" x="60.53" y="7"/><line style="stroke:#181818;stroke-width:0.5;" x1="60.53" x2="273.53" y1="33.2969" y2="33.2969"/><text fill="#000000" font-family="sans-serif" font-size="14" lengthAdjust="spacing" textLength="68" x="133.03" y="24.9951">Pendente</text><ellipse cx="110.53" cy="54.2969" fill="#222222" rx="10" ry="10" style="stroke:#222222;stroke-width:1.0;"/><g id="Pendente.Aberto"><rect fill="#F1F1F1" height="50" rx="12.5" ry="12.5" style="stroke:#181818;stroke-width:0.5;" width="66" x="77.53" y="101.2969"/><line style="stroke:#181818;stroke-width:0.5;" x1="77.53" x2="143.53" y1="127.5938" y2="127.5938"/><text fill="#000000" font-family="sans-serif" font-size="14" lengthAdjust="spacing" textLength="46" x="87.53" y="119.292">Aberto</text></g><g id="Pendente.Vencido"><rect fill="#F1F1F1" height="50" rx="12.5" ry="12.5" style="stroke:#181818;stroke-width:0.5;" width="76" x="72.53" y="204.2969"/><line style="stroke:#181818;stroke-width:0.5;" x1="72.53" x2="148.53" y1="230.5938" y2="230.5938"/><text fill="#000000" font-family="sans-serif" font-size="14" lengthAdjust="spacing" textLength="56" x="82.53" y="222.292">Vencido</text></g><!--link *start*Pendente to Aberto--><g id="link_*start*Pendente_Aberto"><path d="M110.53,64.7369 C110.53,73.9969 110.53,82.4869 110.53,94.9769 " fill="none" id="*start*Pendente-to-Aberto" style="stroke:#181818;stroke-width:1.0;"/><polygon fill="#181818" points="110.53,100.9769,114.53,91.9769,110.53,95.9769,106.53,91.9769,110.53,100.9769" style="stroke:#181818;stroke-width:1.0;"/></g><!--link Aberto to Vencido--><g id="link_Aberto_Vencido"><path d="M110.53,151.7469 C110.53,167.6269 110.53,182.2369 110.53,198.0769 " fill="none" id="Aberto-to-Vencido" style="stroke:#181818;stroke-width:1.0;"/><polygon fill="#181818" points="110.53,204.0769,114.53,195.0769,110.53,199.0769,106.53,195.0769,110.53,204.0769" style="stroke:#181818;stroke-width:1.0;"/><text fill="#000000" font-family="sans-serif" font-size="13" lengthAdjust="spacing" textLength="152" x="111.53" y="182.3638">Passou do vencimento?</text></g><g id="Pago"><rect fill="#F1F1F1" height="50" rx="12.5" ry="12.5" style="stroke:#181818;stroke-width:0.5;" width="55" x="139.53" y="356.3"/><line style="stroke:#181818;stroke-width:0.5;" x1="139.53" x2="194.53" y1="382.5969" y2="382.5969"/><text fill="#000000" font-family="sans-serif" font-size="14" lengthAdjust="spacing" textLength="35" x="149.53" y="374.2951">Pago</text></g><!--link Pendente to Pago--><g id="link_Pendente_Pago"><path d="M60.35,215.37 C27.59,249.23 6,289.43 31.03,326.3 C55.21,361.93 101.0384,373.2892 133.2684,377.4092 " fill="none" id="Pendente-to-Pago" style="stroke:#181818;stroke-width:1.0;"/><polygon fill="#181818" points="139.22,378.17,130.7998,373.0611,134.2604,377.536,129.7854,380.9965,139.22,378.17" style="stroke:#181818;stroke-width:1.0;"/><text fill="#000000" font-family="sans-serif" font-size="13" lengthAdjust="spacing" textLength="37" x="126.03" y="307.3669">Pagar</text><text fill="#000000" font-family="sans-serif" font-size="13" lengthAdjust="spacing" textLength="225" x="32.03" y="322.4997">(preenchendo data de pagamento)</text></g><!--link Pago to Pendente--><g id="link_Pago_Pendente"><path d="M194.59,373 C217.16,365.4 247.62,351.06 262.03,326.3 C269.18,314.01 265.84,308 262.03,294.3 C259.25,284.29 257.9839,279.8132 253.8039,269.9632 " fill="none" id="Pago-to-Pendente" style="stroke:#181818;stroke-width:1.0;"/><polygon fill="#181818" points="251.46,264.44,251.2936,274.2875,253.4132,269.0427,258.658,271.1623,251.46,264.44" style="stroke:#181818;stroke-width:1.0;"/><text fill="#000000" font-family="sans-serif" font-size="13" lengthAdjust="spacing" textLength="135" x="302.03" y="307.3669">Desfazer pagamento</text><text fill="#000000" font-family="sans-serif" font-size="13" lengthAdjust="spacing" textLength="205" x="267.03" y="322.4997">(apagando data de pagamento)</text></g><!--SRC=[ROmn3i8m40Hxls9BGCe7KX15uW6kQ83YY2-10bzaEnH4-JjdHq23g_NUxCH4YM7PE_OQPWDzfzq5LRL7U-MGf5HhBEsHVNTtWXgMOfG9cf-vUwX26hCOy_LbtjAmmWE5iz-CWHM-AI5mb0YECUgjhBUwpNZPVIGr3XnxUd7uWIgY_FblUGC0]--></g></svg>