<?xml version="1.0" encoding="us-ascii" standalone="no"?><svg xmlns="http://www.w3.org/2000/svg" xmlns:xlink="http://www.w3.org/1999/xlink" contentStyleType="text/css" height="480px" preserveAspectRatio="none" style="width:350px;height:480px;background:#FFFFFF;" version="1.1" viewBox="0 0 350 480" width="350px" zoomAndPan="magnify"><defs/><g><path d="M19.5,7 L207.5,7 A12.5,12.5 0 0 1 220,19.5 L220,33.2969 L7,33.2969 L7,19.5 A12.5,12.5 0 0 1 19.5,7 " fill="#F1F1F1" style="stroke:#F1F1F1;stroke-width:1.0;"/><rect fill="none" height="257.2969" rx="12.5" ry="12.5" style="stroke:#181818;stroke-width:0.5;" width="213" x="7" y="7"/><line style="stroke:#181818;stroke-width:0.5;" x1="7" x2="220" y1="33.2969" y2="33.2969"/><text fill="#000000" font-family="sans-serif" font-size="14" lengthAdjust="spacing" textLength="68" x="79.5" y="24.9951">Pendente</text><ellipse cx="57" cy="54.2969" fill="#222222" rx="10" ry="10" style="stroke:#222222;stroke-width:1.0;"/><g id="Pendente.Aberto"><rect fill="#F1F1F1" height="50" rx="12.5" ry="12.5" style="stroke:#181818;stroke-width:0.5;" width="66" x="24" y="101.2969"/><line style="stroke:#181818;stroke-width:0.5;" x1="24" x2="90" y1="127.5938" y2="127.5938"/><text fill="#000000" font-family="sans-serif" font-size="14" lengthAdjust="spacing" textLength="46" x="34" y="119.292">Aberto</text></g><g id="Pendente.Vencido"><rect fill="#F1F1F1" height="50" rx="12.5" ry="12.5" style="stroke:#181818;stroke-width:0.5;" width="76" x="19" y="204.2969"/><line style="stroke:#181818;stroke-width:0.5;" x1="19" x2="95" y1="230.5938" y2="230.5938"/><text fill="#000000" font-family="sans-serif" font-size="14" lengthAdjust="spacing" textLength="56" x="29" y="222.292">Vencido</text></g><!--link *start*Pendente to Aberto--><g id="link_*start*Pendente_Aberto"><path d="M57,64.7369 C57,73.9969 57,82.4869 57,94.9769 " fill="none" id="*start*Pendente-to-Aberto" style="stroke:#181818;stroke-width:1.0;"/><polygon fill="#181818" points="57,100.9769,61,91.9769,57,95.9769,53,91.9769,57,100.9769" style="stroke:#181818;stroke-width:1.0;"/></g><!--link Aberto to Vencido--><g id="link_Aberto_Vencido"><path d="M57,151.7469 C57,167.6269 57,182.2369 57,198.0769 " fill="none" id="Aberto-to-Vencido" style="stroke:#181818;stroke-width:1.0;"/><polygon fill="#181818" points="57,204.0769,61,195.0769,57,199.0769,53,195.0769,57,204.0769" style="stroke:#181818;stroke-width:1.0;"/><text fill="#000000" font-family="sans-serif" font-size="13" lengthAdjust="spacing" textLength="152" x="58" y="182.3638">Passou do vencimento?</text></g><g id="Pago"><rect fill="#F1F1F1" height="50" rx="12.5" ry="12.5" style="stroke:#181818;stroke-width:0.5;" width="55" x="46" y="341.3"/><line style="stroke:#181818;stroke-width:0.5;" x1="46" x2="101" y1="367.5969" y2="367.5969"/><text fill="#000000" font-family="sans-serif" font-size="14" lengthAdjust="spacing" textLength="35" x="56" y="359.2951">Pago</text></g><g id="Cancelado"><rect fill="#F1F1F1" height="50" rx="12.5" ry="12.5" style="stroke:#181818;stroke-width:0.5;" width="93" x="244" y="341.3"/><line style="stroke:#181818;stroke-width:0.5;" x1="244" x2="337" y1="367.5969" y2="367.5969"/><text fill="#000000" font-family="sans-serif" font-size="14" lengthAdjust="spacing" textLength="73" x="254" y="359.2951">Cancelado</text></g><ellipse cx="290.5" cy="463.3" fill="none" rx="11" ry="11" style="stroke:#222222;stroke-width:1.0;"/><ellipse cx="290.5" cy="463.3" fill="#222222" rx="6" ry="6" style="stroke:#222222;stroke-width:1.0;"/><!--link Pendente to Pago--><g id="link_Pendente_Pago"><path d="M40.74,264.6 C37.08,274.45 33.92,284.41 31.5,294.3 C27.38,311.13 32.7055,323.3052 43.5155,336.3152 " fill="none" id="Pendente-to-Pago" style="stroke:#181818;stroke-width:1.0;"/><polygon fill="#181818" points="47.35,340.93,44.6749,331.4514,44.1546,337.0843,38.5217,336.564,47.35,340.93" style="stroke:#181818;stroke-width:1.0;"/><text fill="#000000" font-family="sans-serif" font-size="13" lengthAdjust="spacing" textLength="37" x="32.5" y="307.3669">Pagar</text></g><!--link Pago to Pendente--><g id="link_Pago_Pendente"><path d="M77.78,340.85 C81.1,321.84 84.967,299.7704 90.067,270.5904 " fill="none" id="Pago-to-Pendente" style="stroke:#181818;stroke-width:1.0;"/><polygon fill="#181818" points="91.1,264.68,85.6102,272.8569,90.2392,269.6053,93.4908,274.2343,91.1,264.68" style="stroke:#181818;stroke-width:1.0;"/><text fill="#000000" font-family="sans-serif" font-size="13" lengthAdjust="spacing" textLength="135" x="86.5" y="307.3669">Desfazer pagamento</text></g><!--link Pendente to Cancelado--><g id="link_Pendente_Cancelado"><path d="M212.61,264.68 C235.2,293.86 253.1881,317.0948 267.8981,336.1048 " fill="none" id="Pendente-to-Cancelado" style="stroke:#181818;stroke-width:1.0;"/><polygon fill="#181818" points="271.57,340.85,269.2257,331.2842,268.5101,336.8956,262.8987,336.1801,271.57,340.85" style="stroke:#181818;stroke-width:1.0;"/><text fill="#000000" font-family="sans-serif" font-size="13" lengthAdjust="spacing" textLength="94" x="248.5" y="307.3669">Cancelar T&#237;tulo</text></g><!--link Cancelado to *end*--><g id="link_Cancelado_*end*"><path d="M290.5,391.76 C290.5,411.34 290.5,431.79 290.5,446.1 " fill="none" id="Cancelado-to-*end*" style="stroke:#181818;stroke-width:1.0;"/><polygon fill="#181818" points="290.5,452.1,294.5,443.1,290.5,447.1,286.5,443.1,290.5,452.1" style="stroke:#181818;stroke-width:1.0;"/></g><!--SRC=[Aov9B4bL24ZDIqdD0pAgkHI085ehLa5Nrqx1CIcrg2GVB0HXWaN3KlEICrFo5QmK0XABY_DB5O3iCf1OBj28V7kkMYukk7aWzG69wH35wOb5g3BEYNd9gJc9OBEWx2A5aCDhIqfpye66WFI13O3fiL9mIIrEIwnABL8e09e6jeyBOGX8BT3f0000]--></g></svg>