<?xml version="1.0" encoding="us-ascii" standalone="no"?><svg xmlns="http://www.w3.org/2000/svg" xmlns:xlink="http://www.w3.org/1999/xlink" contentStyleType="text/css" height="266px" preserveAspectRatio="none" style="width:912px;height:266px;background:#FFFFFF;" version="1.1" viewBox="0 0 912 266" width="912px" zoomAndPan="magnify"><defs/><g><text fill="#000000" font-family="sans-serif" font-size="14" font-weight="bold" lengthAdjust="spacing" textLength="177" x="135" y="22.9951">Treinos &#215; Gradua&#231;&#245;es</text><text fill="#000000" font-family="sans-serif" font-size="10" lengthAdjust="spacing" textLength="12" x="29" y="62.5791">23</text><text fill="#000000" font-family="sans-serif" font-size="10" lengthAdjust="spacing" textLength="12" x="57" y="62.5791">24</text><text fill="#000000" font-family="sans-serif" font-size="10" lengthAdjust="spacing" textLength="12" x="85" y="62.5791">25</text><text fill="#000000" font-family="sans-serif" font-size="10" lengthAdjust="spacing" textLength="12" x="113" y="62.5791">26</text><text fill="#000000" font-family="sans-serif" font-size="10" lengthAdjust="spacing" textLength="12" x="141" y="62.5791">27</text><text fill="#000000" font-family="sans-serif" font-size="10" lengthAdjust="spacing" textLength="12" x="169" y="62.5791">28</text><text fill="#000000" font-family="sans-serif" font-size="10" lengthAdjust="spacing" textLength="12" x="197" y="62.5791">29</text><text fill="#000000" font-family="sans-serif" font-size="10" lengthAdjust="spacing" textLength="12" x="225" y="62.5791">30</text><text fill="#000000" font-family="sans-serif" font-size="10" lengthAdjust="spacing" textLength="12" x="253" y="62.5791">31</text><text fill="#000000" font-family="sans-serif" font-size="10" lengthAdjust="spacing" textLength="12" x="281" y="62.5791">32</text><text fill="#000000" font-family="sans-serif" font-size="10" lengthAdjust="spacing" textLength="12" x="309" y="62.5791">33</text><text fill="#000000" font-family="sans-serif" font-size="10" lengthAdjust="spacing" textLength="12" x="337" y="62.5791">34</text><text fill="#000000" font-family="sans-serif" font-size="10" lengthAdjust="spacing" textLength="12" x="365" y="62.5791">35</text><text fill="#000000" font-family="sans-serif" font-size="10" lengthAdjust="spacing" textLength="12" x="393" y="62.5791">36</text><text fill="#000000" font-family="sans-serif" font-size="10" lengthAdjust="spacing" textLength="12" x="421" y="62.5791">37</text><line style="stroke:#C0C0C0;stroke-width:1.0;" x1="24" x2="24" y1="53.2969" y2="264.3438"/><line style="stroke:#C0C0C0;stroke-width:1.0;" x1="52" x2="52" y1="53.2969" y2="264.3438"/><line style="stroke:#C0C0C0;stroke-width:1.0;" x1="80" x2="80" y1="53.2969" y2="264.3438"/><line style="stroke:#C0C0C0;stroke-width:1.0;" x1="108" x2="108" y1="53.2969" y2="264.3438"/><line style="stroke:#C0C0C0;stroke-width:1.0;" x1="136" x2="136" y1="53.2969" y2="264.3438"/><line style="stroke:#C0C0C0;stroke-width:1.0;" x1="164" x2="164" y1="53.2969" y2="264.3438"/><line style="stroke:#C0C0C0;stroke-width:1.0;" x1="192" x2="192" y1="53.2969" y2="264.3438"/><line style="stroke:#C0C0C0;stroke-width:1.0;" x1="220" x2="220" y1="53.2969" y2="264.3438"/><line style="stroke:#C0C0C0;stroke-width:1.0;" x1="248" x2="248" y1="53.2969" y2="264.3438"/><line style="stroke:#C0C0C0;stroke-width:1.0;" x1="276" x2="276" y1="53.2969" y2="264.3438"/><line style="stroke:#C0C0C0;stroke-width:1.0;" x1="304" x2="304" y1="53.2969" y2="264.3438"/><line style="stroke:#C0C0C0;stroke-width:1.0;" x1="332" x2="332" y1="53.2969" y2="264.3438"/><line style="stroke:#C0C0C0;stroke-width:1.0;" x1="360" x2="360" y1="53.2969" y2="264.3438"/><line style="stroke:#C0C0C0;stroke-width:1.0;" x1="388" x2="388" y1="53.2969" y2="264.3438"/><line style="stroke:#C0C0C0;stroke-width:1.0;" x1="416" x2="416" y1="53.2969" y2="264.3438"/><line style="stroke:#C0C0C0;stroke-width:1.0;" x1="444" x2="444" y1="53.2969" y2="264.3438"/><line style="stroke:#C0C0C0;stroke-width:1.0;" x1="448" x2="448" y1="53.2969" y2="264.3438"/><line style="stroke:#C0C0C0;stroke-width:1.0;" x1="0" x2="0" y1="37.2969" y2="53.2969"/><line style="stroke:#C0C0C0;stroke-width:1.0;" x1="120" x2="120" y1="37.2969" y2="53.2969"/><text fill="#000000" font-family="sans-serif" font-size="12" font-weight="bold" lengthAdjust="spacing" textLength="58" x="31" y="48.4355">Jun 2021</text><line style="stroke:#C0C0C0;stroke-width:1.0;" x1="244" x2="244" y1="37.2969" y2="53.2969"/><text fill="#000000" font-family="sans-serif" font-size="12" font-weight="bold" lengthAdjust="spacing" textLength="53" x="155.5" y="48.4355">Jul 2021</text><line style="stroke:#C0C0C0;stroke-width:1.0;" x1="368" x2="368" y1="37.2969" y2="53.2969"/><text fill="#000000" font-family="sans-serif" font-size="12" font-weight="bold" lengthAdjust="spacing" textLength="63" x="274.5" y="48.4355">Aug 2021</text><line style="stroke:#C0C0C0;stroke-width:1.0;" x1="448" x2="448" y1="37.2969" y2="53.2969"/><text fill="#000000" font-family="sans-serif" font-size="12" font-weight="bold" lengthAdjust="spacing" textLength="63" x="376.5" y="48.4355">Sep 2021</text><line style="stroke:#C0C0C0;stroke-width:1.0;" x1="0" x2="448" y1="37.2969" y2="37.2969"/><line style="stroke:#C0C0C0;stroke-width:1.0;" x1="0" x2="448" y1="53.2969" y2="53.2969"/><line style="stroke:#C0C0C0;stroke-width:1.0;" x1="0" x2="448" y1="64.2969" y2="64.2969"/><line style="stroke:#181818;stroke-width:1.5;" x1="103" x2="103" y1="79.1016" y2="122.3086"/><line style="stroke:#181818;stroke-width:1.5;" x1="103" x2="111" y1="122.3086" y2="122.3086"/><polygon fill="#181818" points="107,118.3086,107,122.3086,107,126.3086,111,122.3086" style="stroke:#181818;stroke-width:1.5;"/><line style="stroke:#181818;stroke-width:1.5;" x1="111" x2="103" y1="122.3086" y2="122.3086"/><line style="stroke:#181818;stroke-width:1.5;" x1="103" x2="103" y1="122.3086" y2="139.1133"/><line style="stroke:#181818;stroke-width:1.5;" x1="103" x2="335" y1="139.1133" y2="139.1133"/><polygon fill="#181818" points="331,135.1133,331,139.1133,331,143.1133,335,139.1133" style="stroke:#181818;stroke-width:1.5;"/><rect fill="#ADD8E6" height="12.8047" style="stroke:none;stroke-width:1.0;" width="108" x="2" y="66.2969"/><line style="stroke:#ADD8E6;stroke-width:1.0;" x1="2" x2="110" y1="66.2969" y2="66.2969"/><line style="stroke:#ADD8E6;stroke-width:1.0;" x1="2" x2="110" y1="79.1016" y2="79.1016"/><line style="stroke:#ADD8E6;stroke-width:1.0;" x1="2" x2="2" y1="66.2969" y2="79.1016"/><line style="stroke:#ADD8E6;stroke-width:1.0;" x1="110" x2="110" y1="66.2969" y2="79.1016"/><line style="stroke:#181818;stroke-width:1.0;" x1="0" x2="5" y1="97.5039" y2="97.5039"/><line style="stroke:#181818;stroke-width:1.0;" x1="246" x2="447" y1="97.5039" y2="97.5039"/><rect fill="#E2E2F0" height="12.8047" style="stroke:none;stroke-width:1.0;" width="332" x="114" y="115.9063"/><line style="stroke:#181818;stroke-width:1.0;" x1="114" x2="446" y1="115.9063" y2="115.9063"/><line style="stroke:#181818;stroke-width:1.0;" x1="114" x2="446" y1="128.7109" y2="128.7109"/><line style="stroke:#181818;stroke-width:1.0;" x1="114" x2="114" y1="115.9063" y2="128.7109"/><line style="stroke:#181818;stroke-width:1.0;" x1="446" x2="446" y1="115.9063" y2="128.7109"/><rect fill="#E2E2F0" height="12.8047" style="stroke:none;stroke-width:1.0;" width="108" x="338" y="132.7109"/><line style="stroke:#181818;stroke-width:1.0;" x1="338" x2="446" y1="132.7109" y2="132.7109"/><line style="stroke:#181818;stroke-width:1.0;" x1="338" x2="446" y1="145.5156" y2="145.5156"/><line style="stroke:#181818;stroke-width:1.0;" x1="338" x2="338" y1="132.7109" y2="145.5156"/><line style="stroke:#181818;stroke-width:1.0;" x1="446" x2="446" y1="132.7109" y2="145.5156"/><line style="stroke:#181818;stroke-width:1.0;" x1="0" x2="5" y1="163.918" y2="163.918"/><line style="stroke:#181818;stroke-width:1.0;" x1="147" x2="447" y1="163.918" y2="163.918"/><rect fill="#E2E2F0" height="12.8047" style="stroke:none;stroke-width:1.0;" width="444" x="2" y="182.3203"/><line style="stroke:#181818;stroke-width:1.0;" x1="2" x2="446" y1="182.3203" y2="182.3203"/><line style="stroke:#181818;stroke-width:1.0;" x1="2" x2="446" y1="195.125" y2="195.125"/><line style="stroke:#181818;stroke-width:1.0;" x1="2" x2="2" y1="182.3203" y2="195.125"/><line style="stroke:#181818;stroke-width:1.0;" x1="446" x2="446" y1="182.3203" y2="195.125"/><polygon fill="#000000" points="110,199.125,115,204.125,110,209.125,105,204.125" style="stroke:#000000;stroke-width:1.0;"/><polygon fill="#000000" points="222,215.9297,227,220.9297,222,225.9297,217,220.9297" style="stroke:#000000;stroke-width:1.0;"/><polygon fill="#000000" points="334,232.7344,339,237.7344,334,242.7344,329,237.7344" style="stroke:#000000;stroke-width:1.0;"/><polygon fill="#000000" points="446,249.5391,451,254.5391,446,259.5391,441,254.5391" style="stroke:#000000;stroke-width:1.0;"/><text fill="#000000" font-family="sans-serif" font-size="11" lengthAdjust="spacing" textLength="122" x="114" y="76.5073">Anteriores - 8 treinos</text><text fill="#000000" font-family="sans-serif" font-size="11" lengthAdjust="spacing" textLength="231" x="10" y="101.312">Entrada no Fuji com 8 treinos anteriores</text><text fill="#000000" font-family="sans-serif" font-size="11" lengthAdjust="spacing" textLength="118" x="118" y="126.1167">Turma 1 - 24 treinos</text><text fill="#000000" font-family="sans-serif" font-size="11" lengthAdjust="spacing" textLength="111" x="450" y="142.9214">Turma 2 - 8 treinos</text><text fill="#000000" font-family="sans-serif" font-size="11" lengthAdjust="spacing" textLength="132" x="10" y="167.7261">Evolu&#231;&#227;o da gradua&#231;&#227;o</text><text fill="#000000" font-family="sans-serif" font-size="11" lengthAdjust="spacing" textLength="460" x="450" y="192.5308">Faixa Branca: 8 treinos anteriores + 24 na turma 1 e 8 na turma 2 &#8658; 40 Treinos</text><text fill="#000000" font-family="sans-serif" font-size="11" lengthAdjust="spacing" textLength="51" x="118" y="209.3354">8 treinos</text><text fill="#000000" font-family="sans-serif" font-size="11" lengthAdjust="spacing" textLength="58" x="230" y="226.1401">16 treinos</text><text fill="#000000" font-family="sans-serif" font-size="11" lengthAdjust="spacing" textLength="58" x="342" y="242.9448">24 treinos</text><text fill="#000000" font-family="sans-serif" font-size="11" lengthAdjust="spacing" textLength="58" x="454" y="259.7495">40 treinos</text><!--SRC=[VLBDRjD04BxxAUQ2Q8LSsPQfefmAXLIg4gc2j9UgXx4zSRPiTgFTsT0-0NSkF007de0do9lm98pjE6b8X1Gv7i_tiz_iN7X6npKQvWXWhYg2cRLSs2Sfbyu-Kic-H4tmbUYBVjvzXPRfmHh8aYoDa_CuIQNDYWKzTQICzR3-0LSEgu3hN-lVvAD84FVl39DJrf6760R07VO1qCEzrTK3QFIYdBUU7j1Ke3oKLWj5NWreLS-vq854BOxXes7nG30MHk5H2NAnanNwpYrkxAV1BH1IySxoVNDEU-yqwynt-Epmh9pzSzG6tMXiHeFSvNdjWKpLDhDjSz2dcydnMfh0sbwqIRMoEiZOVbgGR7K_HIcx62DKJmZl7PeIXyVplcaI6WJU92Q1RSiC_dpx3ddItrMNQLPiHt2-F_yqILurerrgOchJl1Z779TBCiSYYym1Aj_FlazuUIazOV0_WaGu8FJtTuHn8OzkuQCRBV-tap6io7abcvoUoIxdP-d9T1vWH0KaAQI3eVpUvd0xlMnMFJ-DJgvknk1jS2L1fJmxLGGM_cbqZIk4Jy6mMj0GJD0wkhwR3E5pA0I6J70tYJxG38DcsTlILihKGv4UnODeZAOEMFV4Ioiwxhch_W80]--></g></svg>