<?xml version="1.0" encoding="us-ascii" standalone="no"?><svg xmlns="http://www.w3.org/2000/svg" xmlns:xlink="http://www.w3.org/1999/xlink" contentStyleType="text/css" height="1542px" preserveAspectRatio="none" style="width:972px;height:1542px;background:#FFFFFF;" version="1.1" viewBox="0 0 972 1542" width="972px" zoomAndPan="magnify"><defs/><g><rect fill="#FFA500" height="36.2969" rx="12.5" ry="12.5" style="stroke:#181818;stroke-width:1.5;" width="65" x="441" y="751.8594"/><text fill="#000000" font-family="sans-serif" font-size="14" lengthAdjust="spacing" textLength="45" x="451" y="774.8545">gestor</text><rect fill="#90EE90" height="36.2969" rx="12.5" ry="12.5" style="stroke:#181818;stroke-width:1.5;" width="130" x="556" y="104.4453"/><text fill="#000000" font-family="sans-serif" font-size="14" lengthAdjust="spacing" textLength="110" x="566" y="127.4404">gerir-academias</text><rect fill="#FFD700" height="36.2969" rx="12.5" ry="12.5" style="stroke:#181818;stroke-width:1.5;" width="131" x="736" y="20"/><text fill="#000000" font-family="sans-serif" font-size="14" lengthAdjust="spacing" textLength="111" x="746" y="42.9951">listar-academias</text><path d="M686,122.5938 L696,122.5938 C711,122.5938 711,38.1484 726,38.1484 L736,38.1484 " fill="none" style="stroke:#181818;stroke-width:1.0;"/><rect fill="#F1F1F1" height="36.2969" rx="12.5" ry="12.5" style="stroke:#181818;stroke-width:1.5;" width="131" x="736" y="76.2969"/><text fill="#000000" font-family="sans-serif" font-size="14" lengthAdjust="spacing" textLength="111" x="746" y="99.292">incluir-academia</text><path d="M686,122.5938 L696,122.5938 C711,122.5938 711,94.4453 726,94.4453 L736,94.4453 " fill="none" style="stroke:#181818;stroke-width:1.0;"/><rect fill="#F1F1F1" height="36.2969" rx="12.5" ry="12.5" style="stroke:#181818;stroke-width:1.5;" width="130" x="736" y="132.5938"/><text fill="#000000" font-family="sans-serif" font-size="14" lengthAdjust="spacing" textLength="110" x="746" y="155.5889">editar-academia</text><path d="M686,122.5938 L696,122.5938 C711,122.5938 711,150.7422 726,150.7422 L736,150.7422 " fill="none" style="stroke:#181818;stroke-width:1.0;"/><rect fill="#F1F1F1" height="36.2969" rx="12.5" ry="12.5" style="stroke:#181818;stroke-width:1.5;" width="135" x="736" y="188.8906"/><text fill="#000000" font-family="sans-serif" font-size="14" lengthAdjust="spacing" textLength="115" x="746" y="211.8857">excluir-academia</text><path d="M686,122.5938 L696,122.5938 C711,122.5938 711,207.0391 726,207.0391 L736,207.0391 " fill="none" style="stroke:#181818;stroke-width:1.0;"/><path d="M506,770.0078 L516,770.0078 C531,770.0078 531,122.5938 546,122.5938 L556,122.5938 " fill="none" style="stroke:#181818;stroke-width:1.0;"/><rect fill="#90EE90" height="36.2969" rx="12.5" ry="12.5" style="stroke:#181818;stroke-width:1.5;" width="102" x="556" y="385.9297"/><text fill="#000000" font-family="sans-serif" font-size="14" lengthAdjust="spacing" textLength="82" x="566" y="408.9248">gerir-alunos</text><rect fill="#FFD700" height="36.2969" rx="12.5" ry="12.5" style="stroke:#181818;stroke-width:1.5;" width="103" x="708" y="245.1875"/><text fill="#000000" font-family="sans-serif" font-size="14" lengthAdjust="spacing" textLength="83" x="718" y="268.1826">listar-alunos</text><path d="M658,404.0781 L668,404.0781 C683,404.0781 683,263.3359 698,263.3359 L708,263.3359 " fill="none" style="stroke:#181818;stroke-width:1.0;"/><rect fill="#F1F1F1" height="36.2969" rx="12.5" ry="12.5" style="stroke:#181818;stroke-width:1.5;" width="103" x="708" y="301.4844"/><text fill="#000000" font-family="sans-serif" font-size="14" lengthAdjust="spacing" textLength="83" x="718" y="324.4795">incluir-aluno</text><path d="M658,404.0781 L668,404.0781 C683,404.0781 683,319.6328 698,319.6328 L708,319.6328 " fill="none" style="stroke:#181818;stroke-width:1.0;"/><rect fill="#F1F1F1" height="36.2969" rx="12.5" ry="12.5" style="stroke:#181818;stroke-width:1.5;" width="102" x="708" y="357.7813"/><text fill="#000000" font-family="sans-serif" font-size="14" lengthAdjust="spacing" textLength="82" x="718" y="380.7764">editar-aluno</text><path d="M658,404.0781 L668,404.0781 C683,404.0781 683,375.9297 698,375.9297 L708,375.9297 " fill="none" style="stroke:#181818;stroke-width:1.0;"/><rect fill="#F1F1F1" height="36.2969" rx="12.5" ry="12.5" style="stroke:#181818;stroke-width:1.5;" width="107" x="708" y="414.0781"/><text fill="#000000" font-family="sans-serif" font-size="14" lengthAdjust="spacing" textLength="87" x="718" y="437.0732">excluir-aluno</text><path d="M658,404.0781 L668,404.0781 C683,404.0781 683,432.2266 698,432.2266 L708,432.2266 " fill="none" style="stroke:#181818;stroke-width:1.0;"/><rect fill="#F1F1F1" height="36.2969" rx="12.5" ry="12.5" style="stroke:#181818;stroke-width:1.5;" width="155" x="708" y="470.375"/><text fill="#000000" font-family="sans-serif" font-size="14" lengthAdjust="spacing" textLength="135" x="718" y="493.3701">mudar-status-aluno</text><path d="M658,404.0781 L668,404.0781 C683,404.0781 683,488.5234 698,488.5234 L708,488.5234 " fill="none" style="stroke:#181818;stroke-width:1.0;"/><rect fill="#FFD700" height="36.2969" rx="12.5" ry="12.5" style="stroke:#181818;stroke-width:1.5;" width="121" x="708" y="526.6719"/><text fill="#000000" font-family="sans-serif" font-size="14" lengthAdjust="spacing" textLength="101" x="718" y="549.667">ver-ficha-aluno</text><path d="M658,404.0781 L668,404.0781 C683,404.0781 683,544.8203 698,544.8203 L708,544.8203 " fill="none" style="stroke:#181818;stroke-width:1.0;"/><path d="M506,770.0078 L516,770.0078 C531,770.0078 531,404.0781 546,404.0781 L556,404.0781 " fill="none" style="stroke:#181818;stroke-width:1.0;"/><rect fill="#90EE90" height="36.2969" rx="12.5" ry="12.5" style="stroke:#181818;stroke-width:1.5;" width="139" x="556" y="667.4141"/><text fill="#000000" font-family="sans-serif" font-size="14" lengthAdjust="spacing" textLength="119" x="566" y="690.4092">gerir-professores</text><rect fill="#FFD700" height="36.2969" rx="12.5" ry="12.5" style="stroke:#181818;stroke-width:1.5;" width="140" x="745" y="582.9688"/><text fill="#000000" font-family="sans-serif" font-size="14" lengthAdjust="spacing" textLength="120" x="755" y="605.9639">listar-professores</text><path d="M695,685.5625 L705,685.5625 C720,685.5625 720,601.1172 735,601.1172 L745,601.1172 " fill="none" style="stroke:#181818;stroke-width:1.0;"/><rect fill="#F1F1F1" height="36.2969" rx="12.5" ry="12.5" style="stroke:#181818;stroke-width:1.5;" width="131" x="745" y="639.2656"/><text fill="#000000" font-family="sans-serif" font-size="14" lengthAdjust="spacing" textLength="111" x="755" y="662.2607">incluir-professor</text><path d="M695,685.5625 L705,685.5625 C720,685.5625 720,657.4141 735,657.4141 L745,657.4141 " fill="none" style="stroke:#181818;stroke-width:1.0;"/><rect fill="#F1F1F1" height="36.2969" rx="12.5" ry="12.5" style="stroke:#181818;stroke-width:1.5;" width="130" x="745" y="695.5625"/><text fill="#000000" font-family="sans-serif" font-size="14" lengthAdjust="spacing" textLength="110" x="755" y="718.5576">editar-professor</text><path d="M695,685.5625 L705,685.5625 C720,685.5625 720,713.7109 735,713.7109 L745,713.7109 " fill="none" style="stroke:#181818;stroke-width:1.0;"/><rect fill="#F1F1F1" height="36.2969" rx="12.5" ry="12.5" style="stroke:#181818;stroke-width:1.5;" width="135" x="745" y="751.8594"/><text fill="#000000" font-family="sans-serif" font-size="14" lengthAdjust="spacing" textLength="115" x="755" y="774.8545">excluir-professor</text><path d="M695,685.5625 L705,685.5625 C720,685.5625 720,770.0078 735,770.0078 L745,770.0078 " fill="none" style="stroke:#181818;stroke-width:1.0;"/><path d="M506,770.0078 L516,770.0078 C531,770.0078 531,685.5625 546,685.5625 L556,685.5625 " fill="none" style="stroke:#181818;stroke-width:1.0;"/><rect fill="#90EE90" height="36.2969" rx="12.5" ry="12.5" style="stroke:#181818;stroke-width:1.5;" width="104" x="556" y="977.0469"/><text fill="#000000" font-family="sans-serif" font-size="14" lengthAdjust="spacing" textLength="84" x="566" y="1000.042">gerir-turmas</text><rect fill="#FFD700" height="36.2969" rx="12.5" ry="12.5" style="stroke:#181818;stroke-width:1.5;" width="105" x="710" y="808.1563"/><text fill="#000000" font-family="sans-serif" font-size="14" lengthAdjust="spacing" textLength="85" x="720" y="831.1514">listar-turmas</text><path d="M660,995.1953 L670,995.1953 C685,995.1953 685,826.3047 700,826.3047 L710,826.3047 " fill="none" style="stroke:#181818;stroke-width:1.0;"/><rect fill="#F1F1F1" height="36.2969" rx="12.5" ry="12.5" style="stroke:#181818;stroke-width:1.5;" width="105" x="710" y="864.4531"/><text fill="#000000" font-family="sans-serif" font-size="14" lengthAdjust="spacing" textLength="85" x="720" y="887.4482">incluir-turma</text><path d="M660,995.1953 L670,995.1953 C685,995.1953 685,882.6016 700,882.6016 L710,882.6016 " fill="none" style="stroke:#181818;stroke-width:1.0;"/><rect fill="#F1F1F1" height="36.2969" rx="12.5" ry="12.5" style="stroke:#181818;stroke-width:1.5;" width="130" x="710" y="920.75"/><text fill="#000000" font-family="sans-serif" font-size="14" lengthAdjust="spacing" textLength="110" x="720" y="943.7451">matricular-aluno</text><path d="M660,995.1953 L670,995.1953 C685,995.1953 685,938.8984 700,938.8984 L710,938.8984 " fill="none" style="stroke:#181818;stroke-width:1.0;"/><rect fill="#F1F1F1" height="36.2969" rx="12.5" ry="12.5" style="stroke:#181818;stroke-width:1.5;" width="104" x="710" y="977.0469"/><text fill="#000000" font-family="sans-serif" font-size="14" lengthAdjust="spacing" textLength="84" x="720" y="1000.042">editar-turma</text><path d="M660,995.1953 L670,995.1953 C685,995.1953 685,995.1953 700,995.1953 L710,995.1953 " fill="none" style="stroke:#181818;stroke-width:1.0;"/><rect fill="#F1F1F1" height="36.2969" rx="12.5" ry="12.5" style="stroke:#181818;stroke-width:1.5;" width="109" x="710" y="1033.3438"/><text fill="#000000" font-family="sans-serif" font-size="14" lengthAdjust="spacing" textLength="89" x="720" y="1056.3389">excluir-turma</text><path d="M660,995.1953 L670,995.1953 C685,995.1953 685,1051.4922 700,1051.4922 L710,1051.4922 " fill="none" style="stroke:#181818;stroke-width:1.0;"/><rect fill="#F1F1F1" height="36.2969" rx="12.5" ry="12.5" style="stroke:#181818;stroke-width:1.5;" width="157" x="710" y="1089.6406"/><text fill="#000000" font-family="sans-serif" font-size="14" lengthAdjust="spacing" textLength="137" x="720" y="1112.6357">mudar-status-turma</text><path d="M660,995.1953 L670,995.1953 C685,995.1953 685,1107.7891 700,1107.7891 L710,1107.7891 " fill="none" style="stroke:#181818;stroke-width:1.0;"/><rect fill="#FFD700" height="36.2969" rx="12.5" ry="12.5" style="stroke:#181818;stroke-width:1.5;" width="188" x="710" y="1145.9375"/><text fill="#000000" font-family="sans-serif" font-size="14" lengthAdjust="spacing" textLength="168" x="720" y="1168.9326">imprimir-relatorios-turma</text><path d="M660,995.1953 L670,995.1953 C685,995.1953 685,1164.0859 700,1164.0859 L710,1164.0859 " fill="none" style="stroke:#181818;stroke-width:1.0;"/><path d="M506,770.0078 L516,770.0078 C531,770.0078 531,995.1953 546,995.1953 L556,995.1953 " fill="none" style="stroke:#181818;stroke-width:1.0;"/><rect fill="#FFD700" height="36.2969" rx="12.5" ry="12.5" style="stroke:#181818;stroke-width:1.5;" width="193" x="556" y="1342.9766"/><text fill="#000000" font-family="sans-serif" font-size="14" lengthAdjust="spacing" textLength="173" x="566" y="1365.9717">consultar-dados-comuns</text><rect fill="#F1F1F1" height="36.2969" rx="12.5" ry="12.5" style="stroke:#181818;stroke-width:1.5;" width="161" x="799" y="1202.2344"/><text fill="#000000" font-family="sans-serif" font-size="14" lengthAdjust="spacing" textLength="141" x="809" y="1225.2295">listar-confederacoes</text><path d="M749,1361.125 L759,1361.125 C774,1361.125 774,1220.3828 789,1220.3828 L799,1220.3828 " fill="none" style="stroke:#181818;stroke-width:1.0;"/><rect fill="#F1F1F1" height="36.2969" rx="12.5" ry="12.5" style="stroke:#181818;stroke-width:1.5;" width="135" x="799" y="1258.5313"/><text fill="#000000" font-family="sans-serif" font-size="14" lengthAdjust="spacing" textLength="115" x="809" y="1281.5264">listar-federacoes</text><path d="M749,1361.125 L759,1361.125 C774,1361.125 774,1276.6797 789,1276.6797 L799,1276.6797 " fill="none" style="stroke:#181818;stroke-width:1.0;"/><rect fill="#F1F1F1" height="36.2969" rx="12.5" ry="12.5" style="stroke:#181818;stroke-width:1.5;" width="139" x="799" y="1314.8281"/><text fill="#000000" font-family="sans-serif" font-size="14" lengthAdjust="spacing" textLength="119" x="809" y="1337.8232">listar-graduacoes</text><path d="M749,1361.125 L759,1361.125 C774,1361.125 774,1332.9766 789,1332.9766 L799,1332.9766 " fill="none" style="stroke:#181818;stroke-width:1.0;"/><rect fill="#F1F1F1" height="36.2969" rx="12.5" ry="12.5" style="stroke:#181818;stroke-width:1.5;" width="134" x="799" y="1371.125"/><text fill="#000000" font-family="sans-serif" font-size="14" lengthAdjust="spacing" textLength="114" x="809" y="1394.1201">listar-ocupacoes</text><path d="M749,1361.125 L759,1361.125 C774,1361.125 774,1389.2734 789,1389.2734 L799,1389.2734 " fill="none" style="stroke:#181818;stroke-width:1.0;"/><rect fill="#F1F1F1" height="36.2969" rx="12.5" ry="12.5" style="stroke:#181818;stroke-width:1.5;" width="155" x="799" y="1427.4219"/><text fill="#000000" font-family="sans-serif" font-size="14" lengthAdjust="spacing" textLength="135" x="809" y="1450.417">listar-tabelas-pesos</text><path d="M749,1361.125 L759,1361.125 C774,1361.125 774,1445.5703 789,1445.5703 L799,1445.5703 " fill="none" style="stroke:#181818;stroke-width:1.0;"/><rect fill="#F1F1F1" height="36.2969" rx="12.5" ry="12.5" style="stroke:#181818;stroke-width:1.5;" width="126" x="799" y="1483.7188"/><text fill="#000000" font-family="sans-serif" font-size="14" lengthAdjust="spacing" textLength="106" x="809" y="1506.7139">listar-atividades</text><path d="M749,1361.125 L759,1361.125 C774,1361.125 774,1501.8672 789,1501.8672 L799,1501.8672 " fill="none" style="stroke:#181818;stroke-width:1.0;"/><path d="M506,770.0078 L516,770.0078 C531,770.0078 531,1361.125 546,1361.125 L556,1361.125 " fill="none" style="stroke:#181818;stroke-width:1.0;"/><rect fill="#90EE90" height="36.2969" rx="12.5" ry="12.5" style="stroke:#181818;stroke-width:1.5;" width="110" x="281" y="188.8906"/><text fill="#000000" font-family="sans-serif" font-size="14" lengthAdjust="spacing" textLength="90" x="291" y="211.8857">gerir-exames</text><rect fill="#FFD700" height="36.2969" rx="12.5" ry="12.5" style="stroke:#181818;stroke-width:1.5;" width="111" x="120" y="104.4453"/><text fill="#000000" font-family="sans-serif" font-size="14" lengthAdjust="spacing" textLength="91" x="130" y="127.4404">listar-exames</text><path d="M281,207.0391 L271,207.0391 C256,207.0391 256,122.5938 241,122.5938 L231,122.5938 " fill="none" style="stroke:#181818;stroke-width:1.0;"/><rect fill="#F1F1F1" height="36.2969" rx="12.5" ry="12.5" style="stroke:#181818;stroke-width:1.5;" width="111" x="120" y="160.7422"/><text fill="#000000" font-family="sans-serif" font-size="14" lengthAdjust="spacing" textLength="91" x="130" y="183.7373">incluir-exame</text><path d="M281,207.0391 L271,207.0391 C256,207.0391 256,178.8906 241,178.8906 L231,178.8906 " fill="none" style="stroke:#181818;stroke-width:1.0;"/><rect fill="#F1F1F1" height="36.2969" rx="12.5" ry="12.5" style="stroke:#181818;stroke-width:1.5;" width="110" x="121" y="217.0391"/><text fill="#000000" font-family="sans-serif" font-size="14" lengthAdjust="spacing" textLength="90" x="131" y="240.0342">editar-exame</text><path d="M281,207.0391 L271,207.0391 C256,207.0391 256,235.1875 241,235.1875 L231,235.1875 " fill="none" style="stroke:#181818;stroke-width:1.0;"/><rect fill="#F1F1F1" height="36.2969" rx="12.5" ry="12.5" style="stroke:#181818;stroke-width:1.5;" width="196" x="35" y="273.3359"/><text fill="#000000" font-family="sans-serif" font-size="14" lengthAdjust="spacing" textLength="176" x="45" y="296.3311">aprovar-reprovar-inscritos</text><path d="M281,207.0391 L271,207.0391 C256,207.0391 256,291.4844 241,291.4844 L231,291.4844 " fill="none" style="stroke:#181818;stroke-width:1.0;"/><path d="M441,770.0078 L431,770.0078 C416,770.0078 416,207.0391 401,207.0391 L391,207.0391 " fill="none" style="stroke:#181818;stroke-width:1.0;"/><rect fill="#90EE90" height="36.2969" rx="12.5" ry="12.5" style="stroke:#181818;stroke-width:1.5;" width="123" x="268" y="470.375"/><text fill="#000000" font-family="sans-serif" font-size="14" lengthAdjust="spacing" textLength="103" x="278" y="493.3701">gerir-financeiro</text><rect fill="#FFD700" height="36.2969" rx="12.5" ry="12.5" style="stroke:#181818;stroke-width:1.5;" width="99" x="119" y="329.6328"/><text fill="#000000" font-family="sans-serif" font-size="14" lengthAdjust="spacing" textLength="79" x="129" y="352.6279">listar-titulos</text><path d="M268,488.5234 L258,488.5234 C243,488.5234 243,347.7813 228,347.7813 L218,347.7813 " fill="none" style="stroke:#181818;stroke-width:1.0;"/><rect fill="#F1F1F1" height="36.2969" rx="12.5" ry="12.5" style="stroke:#181818;stroke-width:1.5;" width="133" x="85" y="385.9297"/><text fill="#000000" font-family="sans-serif" font-size="14" lengthAdjust="spacing" textLength="113" x="95" y="408.9248">gerar-cobrancas</text><path d="M268,488.5234 L258,488.5234 C243,488.5234 243,404.0781 228,404.0781 L218,404.0781 " fill="none" style="stroke:#181818;stroke-width:1.0;"/><rect fill="#F1F1F1" height="36.2969" rx="12.5" ry="12.5" style="stroke:#181818;stroke-width:1.5;" width="154" x="64" y="442.2266"/><text fill="#000000" font-family="sans-serif" font-size="14" lengthAdjust="spacing" textLength="134" x="74" y="465.2217">incluir-titulo-manual</text><path d="M268,488.5234 L258,488.5234 C243,488.5234 243,460.375 228,460.375 L218,460.375 " fill="none" style="stroke:#181818;stroke-width:1.0;"/><rect fill="#F1F1F1" height="36.2969" rx="12.5" ry="12.5" style="stroke:#181818;stroke-width:1.5;" width="98" x="120" y="498.5234"/><text fill="#000000" font-family="sans-serif" font-size="14" lengthAdjust="spacing" textLength="78" x="130" y="521.5186">editar-titulo</text><path d="M268,488.5234 L258,488.5234 C243,488.5234 243,516.6719 228,516.6719 L218,516.6719 " fill="none" style="stroke:#181818;stroke-width:1.0;"/><rect fill="#ADD8E6" height="36.2969" rx="12.5" ry="12.5" style="stroke:#181818;stroke-width:1.5;" width="161" x="57" y="554.8203"/><text fill="#000000" font-family="sans-serif" font-size="14" lengthAdjust="spacing" textLength="141" x="67" y="577.8154">registrar-pagamento</text><path d="M268,488.5234 L258,488.5234 C243,488.5234 243,572.9688 228,572.9688 L218,572.9688 " fill="none" style="stroke:#181818;stroke-width:1.0;"/><rect fill="#F1F1F1" height="36.2969" rx="12.5" ry="12.5" style="stroke:#181818;stroke-width:1.5;" width="117" x="101" y="611.1172"/><text fill="#000000" font-family="sans-serif" font-size="14" lengthAdjust="spacing" textLength="97" x="111" y="634.1123">cancelar-titulo</text><path d="M268,488.5234 L258,488.5234 C243,488.5234 243,629.2656 228,629.2656 L218,629.2656 " fill="none" style="stroke:#181818;stroke-width:1.0;"/><path d="M441,770.0078 L431,770.0078 C416,770.0078 416,488.5234 401,488.5234 L391,488.5234 " fill="none" style="stroke:#181818;stroke-width:1.0;"/><rect fill="#90EE90" height="36.2969" rx="12.5" ry="12.5" style="stroke:#181818;stroke-width:1.5;" width="165" x="226" y="751.8594"/><text fill="#000000" font-family="sans-serif" font-size="14" lengthAdjust="spacing" textLength="145" x="236" y="774.8545">gerir-projetos-sociais</text><rect fill="#FFD700" height="36.2969" rx="12.5" ry="12.5" style="stroke:#181818;stroke-width:1.5;" width="166" x="10" y="667.4141"/><text fill="#000000" font-family="sans-serif" font-size="14" lengthAdjust="spacing" textLength="146" x="20" y="690.4092">listar-projetos-sociais</text><path d="M226,770.0078 L216,770.0078 C201,770.0078 201,685.5625 186,685.5625 L176,685.5625 " fill="none" style="stroke:#181818;stroke-width:1.0;"/><rect fill="#F1F1F1" height="36.2969" rx="12.5" ry="12.5" style="stroke:#181818;stroke-width:1.5;" width="158" x="18" y="723.7109"/><text fill="#000000" font-family="sans-serif" font-size="14" lengthAdjust="spacing" textLength="138" x="28" y="746.7061">incluir-projeto-social</text><path d="M226,770.0078 L216,770.0078 C201,770.0078 201,741.8594 186,741.8594 L176,741.8594 " fill="none" style="stroke:#181818;stroke-width:1.0;"/><rect fill="#F1F1F1" height="36.2969" rx="12.5" ry="12.5" style="stroke:#181818;stroke-width:1.5;" width="157" x="19" y="780.0078"/><text fill="#000000" font-family="sans-serif" font-size="14" lengthAdjust="spacing" textLength="137" x="29" y="803.0029">editar-projeto-social</text><path d="M226,770.0078 L216,770.0078 C201,770.0078 201,798.1563 186,798.1563 L176,798.1563 " fill="none" style="stroke:#181818;stroke-width:1.0;"/><rect fill="#F1F1F1" height="36.2969" rx="12.5" ry="12.5" style="stroke:#181818;stroke-width:1.5;" width="162" x="14" y="836.3047"/><text fill="#000000" font-family="sans-serif" font-size="14" lengthAdjust="spacing" textLength="142" x="24" y="859.2998">excluir-projeto-social</text><path d="M226,770.0078 L216,770.0078 C201,770.0078 201,854.4531 186,854.4531 L176,854.4531 " fill="none" style="stroke:#181818;stroke-width:1.0;"/><path d="M441,770.0078 L431,770.0078 C416,770.0078 416,770.0078 401,770.0078 L391,770.0078 " fill="none" style="stroke:#181818;stroke-width:1.0;"/><rect fill="#90EE90" height="36.2969" rx="12.5" ry="12.5" style="stroke:#181818;stroke-width:1.5;" width="102" x="289" y="977.0469"/><text fill="#000000" font-family="sans-serif" font-size="14" lengthAdjust="spacing" textLength="82" x="299" y="1000.042">gerir-planos</text><rect fill="#FFD700" height="36.2969" rx="12.5" ry="12.5" style="stroke:#181818;stroke-width:1.5;" width="103" x="136" y="892.6016"/><text fill="#000000" font-family="sans-serif" font-size="14" lengthAdjust="spacing" textLength="83" x="146" y="915.5967">listar-planos</text><path d="M289,995.1953 L279,995.1953 C264,995.1953 264,910.75 249,910.75 L239,910.75 " fill="none" style="stroke:#181818;stroke-width:1.0;"/><rect fill="#F1F1F1" height="36.2969" rx="12.5" ry="12.5" style="stroke:#181818;stroke-width:1.5;" width="103" x="136" y="948.8984"/><text fill="#000000" font-family="sans-serif" font-size="14" lengthAdjust="spacing" textLength="83" x="146" y="971.8936">incluir-plano</text><path d="M289,995.1953 L279,995.1953 C264,995.1953 264,967.0469 249,967.0469 L239,967.0469 " fill="none" style="stroke:#181818;stroke-width:1.0;"/><rect fill="#F1F1F1" height="36.2969" rx="12.5" ry="12.5" style="stroke:#181818;stroke-width:1.5;" width="102" x="137" y="1005.1953"/><text fill="#000000" font-family="sans-serif" font-size="14" lengthAdjust="spacing" textLength="82" x="147" y="1028.1904">editar-plano</text><path d="M289,995.1953 L279,995.1953 C264,995.1953 264,1023.3438 249,1023.3438 L239,1023.3438 " fill="none" style="stroke:#181818;stroke-width:1.0;"/><rect fill="#F1F1F1" height="36.2969" rx="12.5" ry="12.5" style="stroke:#181818;stroke-width:1.5;" width="107" x="132" y="1061.4922"/><text fill="#000000" font-family="sans-serif" font-size="14" lengthAdjust="spacing" textLength="87" x="142" y="1084.4873">excluir-plano</text><path d="M289,995.1953 L279,995.1953 C264,995.1953 264,1079.6406 249,1079.6406 L239,1079.6406 " fill="none" style="stroke:#181818;stroke-width:1.0;"/><path d="M441,770.0078 L431,770.0078 C416,770.0078 416,995.1953 401,995.1953 L391,995.1953 " fill="none" style="stroke:#181818;stroke-width:1.0;"/><rect fill="#90EE90" height="36.2969" rx="12.5" ry="12.5" style="stroke:#181818;stroke-width:1.5;" width="129" x="262" y="1202.2344"/><text fill="#000000" font-family="sans-serif" font-size="14" lengthAdjust="spacing" textLength="109" x="272" y="1225.2295">gerir-frequencia</text><rect fill="#FFD700" height="36.2969" rx="12.5" ry="12.5" style="stroke:#181818;stroke-width:1.5;" width="138" x="74" y="1117.7891"/><text fill="#000000" font-family="sans-serif" font-size="14" lengthAdjust="spacing" textLength="118" x="84" y="1140.7842">listar-frequencias</text><path d="M262,1220.3828 L252,1220.3828 C237,1220.3828 237,1135.9375 222,1135.9375 L212,1135.9375 " fill="none" style="stroke:#181818;stroke-width:1.0;"/><rect fill="#F1F1F1" height="36.2969" rx="12.5" ry="12.5" style="stroke:#181818;stroke-width:1.5;" width="138" x="74" y="1174.0859"/><text fill="#000000" font-family="sans-serif" font-size="14" lengthAdjust="spacing" textLength="118" x="84" y="1197.0811">incluir-frequencia</text><path d="M262,1220.3828 L252,1220.3828 C237,1220.3828 237,1192.2344 222,1192.2344 L212,1192.2344 " fill="none" style="stroke:#181818;stroke-width:1.0;"/><rect fill="#F1F1F1" height="36.2969" rx="12.5" ry="12.5" style="stroke:#181818;stroke-width:1.5;" width="137" x="75" y="1230.3828"/><text fill="#000000" font-family="sans-serif" font-size="14" lengthAdjust="spacing" textLength="117" x="85" y="1253.3779">editar-frequencia</text><path d="M262,1220.3828 L252,1220.3828 C237,1220.3828 237,1248.5313 222,1248.5313 L212,1248.5313 " fill="none" style="stroke:#181818;stroke-width:1.0;"/><rect fill="#F1F1F1" height="36.2969" rx="12.5" ry="12.5" style="stroke:#181818;stroke-width:1.5;" width="142" x="70" y="1286.6797"/><text fill="#000000" font-family="sans-serif" font-size="14" lengthAdjust="spacing" textLength="122" x="80" y="1309.6748">excluir-frequencia</text><path d="M262,1220.3828 L252,1220.3828 C237,1220.3828 237,1304.8281 222,1304.8281 L212,1304.8281 " fill="none" style="stroke:#181818;stroke-width:1.0;"/><path d="M441,770.0078 L431,770.0078 C416,770.0078 416,1220.3828 401,1220.3828 L391,1220.3828 " fill="none" style="stroke:#181818;stroke-width:1.0;"/><rect fill="#90EE90" height="36.2969" rx="12.5" ry="12.5" style="stroke:#181818;stroke-width:1.5;" width="101" x="290" y="1371.125"/><text fill="#000000" font-family="sans-serif" font-size="14" lengthAdjust="spacing" textLength="81" x="300" y="1394.1201">gerir-gestor</text><rect fill="#FFD700" height="36.2969" rx="12.5" ry="12.5" style="stroke:#181818;stroke-width:1.5;" width="135" x="105" y="1342.9766"/><text fill="#000000" font-family="sans-serif" font-size="14" lengthAdjust="spacing" textLength="115" x="115" y="1365.9717">ver-configuracao</text><path d="M290,1389.2734 L280,1389.2734 C265,1389.2734 265,1361.125 250,1361.125 L240,1361.125 " fill="none" style="stroke:#181818;stroke-width:1.0;"/><rect fill="#F1F1F1" height="36.2969" rx="12.5" ry="12.5" style="stroke:#181818;stroke-width:1.5;" width="171" x="69" y="1399.2734"/><text fill="#000000" font-family="sans-serif" font-size="14" lengthAdjust="spacing" textLength="151" x="79" y="1422.2686">atualizar-configuracao</text><path d="M290,1389.2734 L280,1389.2734 C265,1389.2734 265,1417.4219 250,1417.4219 L240,1417.4219 " fill="none" style="stroke:#181818;stroke-width:1.0;"/><path d="M441,770.0078 L431,770.0078 C416,770.0078 416,1389.2734 401,1389.2734 L391,1389.2734 " fill="none" style="stroke:#181818;stroke-width:1.0;"/><!--SRC=[TLLDQnin4Btlhn3qaX0sn265u5CWQGh1Xj0ckPGSPhNZzHIjjDM7sVRNT-JrVjao-B1-xutUq-ZhmNcmlYPTrj1aLx- -60kwmazHeVF6PbSCAQgslhA8EiAMR0uIIgm97FCig8mgFuMYEDQS4wIb2fEAFOWbJPKTrfu8ayugQ9Eq7OZHCq8pmn5eZoLrA5d1G_dWHhWtsQ7DDoItC52fS8qr6tJEM4mbF6A7c0C-ZNe4jgVIL00VR9rSb94ORFTGDtNmbcHGa6ZPgEepJEgcBHlWtfdgnbBD1HOLy5OYquloF9KTMwYvCtbaPzb7OiY-X_R88UO80FTe1z7ry47QIKlUk3E-6zAW9P8r2MzFFYZJcRES4MaAFY4Ive4wNLw33g2cmJgY6tdlNQZ0fyjYnGPnl0OgZgxzNYDaZAAcTMVssM_a6UNEI09ADIqbcUwuI7RSB6wAQSyK9PCfq2QPPo36516QcOz0EvSarytYdu2QmoJiHdBkEI_gZO_HDY5EHJZSaHFxU4z8epTK1SitMJSRFX-Ww1ySKUDHOTW55PEKKFAQILC7tPtMmtnY8PQy0QN16P56AmjbE46D3Cq9wA7W3UVo1fsP4U1fHvo7vG_8pyFXYSXUUKty-teLv-h8QB6ulhsvlRjUNBnjWtZ6GjminE9-oR-lT-BzxL54-ZAx-Fww4iu4Ar6KSVDJ4JpNNsOli0Fn8sXFDIw53afbBn_hfVWPYdX6F8gFTVQ46-0UYMzQcf9qjUIXd_FxRCNFLO2gBtmqF8xzs_tx3m00]--></g></svg>