<?xml version="1.0" encoding="us-ascii" standalone="no"?><svg xmlns="http://www.w3.org/2000/svg" xmlns:xlink="http://www.w3.org/1999/xlink" contentStyleType="text/css" height="514px" preserveAspectRatio="none" style="width:903px;height:514px;background:#FFFFFF;" version="1.1" viewBox="0 0 903 514" width="903px" zoomAndPan="magnify"><defs/><g><!--cluster Replica??o e Escala\nExemplo com 5 m?quinas--><g id="cluster_Replica&#231;&#227;o e Escala\nExemplo com 5 m&#225;quinas"><polygon fill="none" points="16,16,26,6,886,6,886,487.89,876,497.89,16,497.89,16,16" style="stroke:#181818;stroke-width:1.0;"/><line style="stroke:#181818;stroke-width:1.0;" x1="876" x2="886" y1="16" y2="6"/><line style="stroke:#181818;stroke-width:1.0;" x1="16" x2="876" y1="16" y2="16"/><line style="stroke:#181818;stroke-width:1.0;" x1="876" x2="876" y1="16" y2="497.89"/><text fill="#000000" font-family="sans-serif" font-size="14" font-weight="bold" lengthAdjust="spacing" textLength="153" x="370.5" y="31.9951">Replica&#231;&#227;o e Escala</text><text fill="#000000" font-family="sans-serif" font-size="14" font-weight="bold" lengthAdjust="spacing" textLength="199" x="347.5" y="48.292">Exemplo com 5 m&#225;quinas</text></g><!--cluster VIP--><g id="cluster_VIP"><path d="M152.5,231.15 L178.5,231.15 A3.75,3.75 0 0 1 181,233.65 L188,253.4469 L461.5,253.4469 A2.5,2.5 0 0 1 464,255.9469 L464,342.24 A2.5,2.5 0 0 1 461.5,344.74 L152.5,344.74 A2.5,2.5 0 0 1 150,342.24 L150,233.65 A2.5,2.5 0 0 1 152.5,231.15 " fill="#FFA500" style="stroke:#000000;stroke-width:1.5;"/><line style="stroke:#000000;stroke-width:1.5;" x1="150" x2="188" y1="253.4469" y2="253.4469"/><text fill="#000000" font-family="sans-serif" font-size="14" font-weight="bold" lengthAdjust="spacing" textLength="25" x="154" y="246.1451">VIP</text></g><!--cluster Servidor 1--><g id="cluster_Servidor 1"><path d="M118.5,78 L201.5,78 A3.75,3.75 0 0 1 204,80.5 L211,100.2969 L634.5,100.2969 A2.5,2.5 0 0 1 637,102.7969 L637,188.8 A2.5,2.5 0 0 1 634.5,191.3 L118.5,191.3 A2.5,2.5 0 0 1 116,188.8 L116,80.5 A2.5,2.5 0 0 1 118.5,78 " fill="#00FFFF" style="stroke:#000000;stroke-width:1.5;"/><line style="stroke:#000000;stroke-width:1.5;" x1="116" x2="211" y1="100.2969" y2="100.2969"/><text fill="#000000" font-family="sans-serif" font-size="14" font-weight="bold" lengthAdjust="spacing" textLength="82" x="120" y="92.9951">Servidor 1</text></g><!--cluster Servidor 2--><g id="cluster_Servidor 2"><path d="M498.5,231.3 L581.5,231.3 A3.75,3.75 0 0 1 584,233.8 L591,253.5969 L851.5,253.5969 A2.5,2.5 0 0 1 854,256.0969 L854,342.09 A2.5,2.5 0 0 1 851.5,344.59 L498.5,344.59 A2.5,2.5 0 0 1 496,342.09 L496,233.8 A2.5,2.5 0 0 1 498.5,231.3 " fill="#00FFFF" style="stroke:#000000;stroke-width:1.5;"/><line style="stroke:#000000;stroke-width:1.5;" x1="496" x2="591" y1="253.5969" y2="253.5969"/><text fill="#000000" font-family="sans-serif" font-size="14" font-weight="bold" lengthAdjust="spacing" textLength="82" x="500" y="246.2951">Servidor 2</text></g><!--cluster Servidor 3--><g id="cluster_Servidor 3"><path d="M42.5,376.59 L125.5,376.59 A3.75,3.75 0 0 1 128,379.09 L135,398.8869 L436.5,398.8869 A2.5,2.5 0 0 1 439,401.3869 L439,471.39 A2.5,2.5 0 0 1 436.5,473.89 L42.5,473.89 A2.5,2.5 0 0 1 40,471.39 L40,379.09 A2.5,2.5 0 0 1 42.5,376.59 " fill="#98FB98" style="stroke:#000000;stroke-width:1.5;"/><line style="stroke:#000000;stroke-width:1.5;" x1="40" x2="135" y1="398.8869" y2="398.8869"/><text fill="#000000" font-family="sans-serif" font-size="14" font-weight="bold" lengthAdjust="spacing" textLength="82" x="44" y="391.5851">Servidor 3</text></g><!--cluster Servidor 4--><g id="cluster_Servidor 4"><path d="M465.5,376.59 L548.5,376.59 A3.75,3.75 0 0 1 551,379.09 L558,398.8869 L859.5,398.8869 A2.5,2.5 0 0 1 862,401.3869 L862,471.39 A2.5,2.5 0 0 1 859.5,473.89 L465.5,473.89 A2.5,2.5 0 0 1 463,471.39 L463,379.09 A2.5,2.5 0 0 1 465.5,376.59 " fill="#98FB98" style="stroke:#000000;stroke-width:1.5;"/><line style="stroke:#000000;stroke-width:1.5;" x1="463" x2="558" y1="398.8869" y2="398.8869"/><text fill="#000000" font-family="sans-serif" font-size="14" font-weight="bold" lengthAdjust="spacing" textLength="82" x="467" y="391.5851">Servidor 4</text></g><!--entity Usu?rios--><g id="elem_Usu&#225;rios"><ellipse cx="62" cy="114.5" fill="#F1F1F1" rx="8" ry="8" style="stroke:#181818;stroke-width:0.5;"/><path d="M62,122.5 L62,149.5 M49,130.5 L75,130.5 M62,149.5 L49,164.5 M62,149.5 L75,164.5 " fill="none" style="stroke:#181818;stroke-width:0.5;"/><text fill="#000000" font-family="sans-serif" font-size="14" lengthAdjust="spacing" textLength="60" x="32" y="178.9951">Usu&#225;rios</text></g><!--entity wpvip--><g id="elem_wpvip"><rect fill="#F1F1F1" height="62.5938" rx="2.5" ry="2.5" style="stroke:#181818;stroke-width:0.5;" width="115" x="165.5" y="266.15"/><rect fill="#F1F1F1" height="10" style="stroke:#181818;stroke-width:0.5;" width="15" x="260.5" y="271.15"/><rect fill="#F1F1F1" height="2" style="stroke:#181818;stroke-width:0.5;" width="4" x="258.5" y="273.15"/><rect fill="#F1F1F1" height="2" style="stroke:#181818;stroke-width:0.5;" width="4" x="258.5" y="277.15"/><text fill="#000000" font-family="sans-serif" font-size="14" font-style="italic" lengthAdjust="spacing" textLength="37" x="199.5" y="299.1451">&#171;vip&#187;</text><text fill="#000000" font-family="sans-serif" font-size="14" lengthAdjust="spacing" textLength="75" x="180.5" y="315.442">Wordpress</text></g><!--entity dbvip--><g id="elem_dbvip"><path d="M315.5,276.65 C315.5,266.65 382,266.65 382,266.65 C382,266.65 448.5,266.65 448.5,276.65 L448.5,318.2438 C448.5,328.2438 382,328.2438 382,328.2438 C382,328.2438 315.5,328.2438 315.5,318.2438 L315.5,276.65 " fill="#F1F1F1" style="stroke:#181818;stroke-width:0.5;"/><path d="M315.5,276.65 C315.5,286.65 382,286.65 382,286.65 C382,286.65 448.5,286.65 448.5,276.65 " fill="none" style="stroke:#181818;stroke-width:0.5;"/><text fill="#000000" font-family="sans-serif" font-size="14" font-style="italic" lengthAdjust="spacing" textLength="37" x="363.5" y="303.6451">&#171;vip&#187;</text><text fill="#000000" font-family="sans-serif" font-size="14" lengthAdjust="spacing" textLength="113" x="325.5" y="319.942">Banco de dados</text></g><!--entity Wordpress 1--><g id="elem_Wordpress 1"><rect fill="#F1F1F1" height="46.2969" rx="2.5" ry="2.5" style="stroke:#181818;stroke-width:0.5;" width="128" x="466" y="121"/><rect fill="#F1F1F1" height="10" style="stroke:#181818;stroke-width:0.5;" width="15" x="574" y="126"/><rect fill="#F1F1F1" height="2" style="stroke:#181818;stroke-width:0.5;" width="4" x="572" y="128"/><rect fill="#F1F1F1" height="2" style="stroke:#181818;stroke-width:0.5;" width="4" x="572" y="132"/><text fill="#000000" font-family="sans-serif" font-size="14" lengthAdjust="spacing" textLength="88" x="481" y="153.9951">Wordpress 1</text></g><!--entity Wordpress 2--><g id="elem_Wordpress 2"><rect fill="#F1F1F1" height="46.2969" rx="2.5" ry="2.5" style="stroke:#181818;stroke-width:0.5;" width="128" x="303" y="121"/><rect fill="#F1F1F1" height="10" style="stroke:#181818;stroke-width:0.5;" width="15" x="411" y="126"/><rect fill="#F1F1F1" height="2" style="stroke:#181818;stroke-width:0.5;" width="4" x="409" y="128"/><rect fill="#F1F1F1" height="2" style="stroke:#181818;stroke-width:0.5;" width="4" x="409" y="132"/><text fill="#000000" font-family="sans-serif" font-size="14" lengthAdjust="spacing" textLength="88" x="318" y="153.9951">Wordpress 2</text></g><!--entity Wordpress 3--><g id="elem_Wordpress 3"><rect fill="#F1F1F1" height="46.2969" rx="2.5" ry="2.5" style="stroke:#181818;stroke-width:0.5;" width="128" x="140" y="121"/><rect fill="#F1F1F1" height="10" style="stroke:#181818;stroke-width:0.5;" width="15" x="248" y="126"/><rect fill="#F1F1F1" height="2" style="stroke:#181818;stroke-width:0.5;" width="4" x="246" y="128"/><rect fill="#F1F1F1" height="2" style="stroke:#181818;stroke-width:0.5;" width="4" x="246" y="132"/><text fill="#000000" font-family="sans-serif" font-size="14" lengthAdjust="spacing" textLength="88" x="155" y="153.9951">Wordpress 3</text></g><!--entity Wordpress 4--><g id="elem_Wordpress 4"><rect fill="#F1F1F1" height="46.2969" rx="2.5" ry="2.5" style="stroke:#181818;stroke-width:0.5;" width="128" x="702" y="274.3"/><rect fill="#F1F1F1" height="10" style="stroke:#181818;stroke-width:0.5;" width="15" x="810" y="279.3"/><rect fill="#F1F1F1" height="2" style="stroke:#181818;stroke-width:0.5;" width="4" x="808" y="281.3"/><rect fill="#F1F1F1" height="2" style="stroke:#181818;stroke-width:0.5;" width="4" x="808" y="285.3"/><text fill="#000000" font-family="sans-serif" font-size="14" lengthAdjust="spacing" textLength="88" x="717" y="307.2951">Wordpress 4</text></g><!--entity Wordpress 5--><g id="elem_Wordpress 5"><rect fill="#F1F1F1" height="46.2969" rx="2.5" ry="2.5" style="stroke:#181818;stroke-width:0.5;" width="128" x="539" y="274.3"/><rect fill="#F1F1F1" height="10" style="stroke:#181818;stroke-width:0.5;" width="15" x="647" y="279.3"/><rect fill="#F1F1F1" height="2" style="stroke:#181818;stroke-width:0.5;" width="4" x="645" y="281.3"/><rect fill="#F1F1F1" height="2" style="stroke:#181818;stroke-width:0.5;" width="4" x="645" y="285.3"/><text fill="#000000" font-family="sans-serif" font-size="14" lengthAdjust="spacing" textLength="88" x="554" y="307.2951">Wordpress 5</text></g><!--entity Banco de dados 1--><g id="elem_Banco de dados 1"><rect fill="#F1F1F1" height="46.2969" rx="2.5" ry="2.5" style="stroke:#181818;stroke-width:0.5;" width="166" x="257" y="411.59"/><rect fill="#F1F1F1" height="10" style="stroke:#181818;stroke-width:0.5;" width="15" x="403" y="416.59"/><rect fill="#F1F1F1" height="2" style="stroke:#181818;stroke-width:0.5;" width="4" x="401" y="418.59"/><rect fill="#F1F1F1" height="2" style="stroke:#181818;stroke-width:0.5;" width="4" x="401" y="422.59"/><text fill="#000000" font-family="sans-serif" font-size="14" lengthAdjust="spacing" textLength="126" x="272" y="444.5851">Banco de dados 1</text></g><!--entity Banco de dados 2--><g id="elem_Banco de dados 2"><rect fill="#F1F1F1" height="46.2969" rx="2.5" ry="2.5" style="stroke:#181818;stroke-width:0.5;" width="166" x="56" y="411.59"/><rect fill="#F1F1F1" height="10" style="stroke:#181818;stroke-width:0.5;" width="15" x="202" y="416.59"/><rect fill="#F1F1F1" height="2" style="stroke:#181818;stroke-width:0.5;" width="4" x="200" y="418.59"/><rect fill="#F1F1F1" height="2" style="stroke:#181818;stroke-width:0.5;" width="4" x="200" y="422.59"/><text fill="#000000" font-family="sans-serif" font-size="14" lengthAdjust="spacing" textLength="126" x="71" y="444.5851">Banco de dados 2</text></g><!--entity Banco de dados 3--><g id="elem_Banco de dados 3"><rect fill="#F1F1F1" height="46.2969" rx="2.5" ry="2.5" style="stroke:#181818;stroke-width:0.5;" width="166" x="680" y="411.59"/><rect fill="#F1F1F1" height="10" style="stroke:#181818;stroke-width:0.5;" width="15" x="826" y="416.59"/><rect fill="#F1F1F1" height="2" style="stroke:#181818;stroke-width:0.5;" width="4" x="824" y="418.59"/><rect fill="#F1F1F1" height="2" style="stroke:#181818;stroke-width:0.5;" width="4" x="824" y="422.59"/><text fill="#000000" font-family="sans-serif" font-size="14" lengthAdjust="spacing" textLength="126" x="695" y="444.5851">Banco de dados 3</text></g><!--entity Banco de dados 4--><g id="elem_Banco de dados 4"><rect fill="#F1F1F1" height="46.2969" rx="2.5" ry="2.5" style="stroke:#181818;stroke-width:0.5;" width="166" x="479" y="411.59"/><rect fill="#F1F1F1" height="10" style="stroke:#181818;stroke-width:0.5;" width="15" x="625" y="416.59"/><rect fill="#F1F1F1" height="2" style="stroke:#181818;stroke-width:0.5;" width="4" x="623" y="418.59"/><rect fill="#F1F1F1" height="2" style="stroke:#181818;stroke-width:0.5;" width="4" x="623" y="422.59"/><text fill="#000000" font-family="sans-serif" font-size="14" lengthAdjust="spacing" textLength="126" x="494" y="444.5851">Banco de dados 4</text></g><!--link Usu?rios to wpvip--><g id="link_Usu&#225;rios_wpvip"><path d="M92.27,176.14 C102.26,186.19 113.5,197.32 124,207.3 C144.96,227.21 164.5632,244.9464 183.7332,261.9664 " fill="none" id="Usu&#225;rios-to-wpvip" style="stroke:#181818;stroke-width:1.0;"/><polygon fill="#181818" points="188.22,265.95,184.1455,256.9835,184.481,262.6304,178.8341,262.9658,188.22,265.95" style="stroke:#181818;stroke-width:1.0;"/></g><!--link Servidor 1 to dbvip--><g id="link_Servidor 1_dbvip"><path d="M621.8482,191.5482 C621.8024,191.6478 621.7564,191.7472 621.71,191.8465 C621.5246,192.2436 621.3347,192.6383 621.1402,193.0304 C620.7513,193.8147 620.3441,194.5885 619.9178,195.35 C619.0651,196.873 618.136,198.3465 617.1238,199.755 C615.0994,202.572 612.7425,205.1288 610,207.3 C588.7,224.16 513.43,205.74 488,215.3 C458.93,226.22 435.6631,243.875 415.8831,262.095 " fill="none" id="Servidor 1-to-dbvip" style="stroke:#181818;stroke-width:1.0;"/><polygon fill="#181818" points="411.47,266.16,420.7997,263.0045,415.1476,262.7725,415.3796,257.1204,411.47,266.16" style="stroke:#181818;stroke-width:1.0;"/></g><!--link Servidor 2 to dbvip--><g id="link_Servidor 2_dbvip"><path d="M495.8545,297.44 C495.5687,297.44 495.283,297.44 494.9973,297.44 C494.4258,297.44 493.8543,297.44 493.2829,297.44 C492.14,297.44 490.9971,297.44 489.8542,297.44 C485.2828,297.44 480.7119,297.44 476.1413,297.44 C467,297.44 463.86,297.44 454.72,297.44 " fill="none" id="Servidor 2-to-dbvip" style="stroke:#181818;stroke-width:1.0;"/><polygon fill="#181818" points="448.72,297.44,457.72,301.44,453.72,297.44,457.72,293.44,448.72,297.44" style="stroke:#181818;stroke-width:1.0;"/></g><!--reverse link Wordpress 1 to wpvip--><g id="link_Wordpress 1_wpvip"><path d="M504.1494,171.6001 C488.9994,185.7801 471.78,198.89 449,207.3 C417.48,218.94 328.42,201.02 298,215.3 C274.9,226.14 255.56,247.62 242.31,265.75 " fill="none" id="Wordpress 1-backto-wpvip" style="stroke:#181818;stroke-width:1.0;"/><polygon fill="#181818" points="508.53,167.5,499.2258,170.7298,504.8795,170.9167,504.6926,176.5705,508.53,167.5" style="stroke:#181818;stroke-width:1.0;"/></g><!--reverse link Wordpress 2 to wpvip--><g id="link_Wordpress 2_wpvip"><path d="M340.223,171.9782 C326.653,185.6482 313.32,199.22 298,215.3 C282.25,231.82 264.93,250.51 250.91,265.79 " fill="none" id="Wordpress 2-backto-wpvip" style="stroke:#181818;stroke-width:1.0;"/><polygon fill="#181818" points="344.45,167.72,335.2707,171.2893,340.9275,171.2685,340.9482,176.9253,344.45,167.72" style="stroke:#181818;stroke-width:1.0;"/></g><!--reverse link Wordpress 3 to wpvip--><g id="link_Wordpress 3_wpvip"><path d="M207.5493,173.423 C210.8293,199.483 215.5,236.76 219.17,265.91 " fill="none" id="Wordpress 3-backto-wpvip" style="stroke:#181818;stroke-width:1.0;"/><polygon fill="#181818" points="206.8,167.47,203.9552,176.8991,207.4244,172.4309,211.8926,175.9,206.8,167.47" style="stroke:#181818;stroke-width:1.0;"/></g><!--link wpvip to Wordpress 4--><g id="link_wpvip_Wordpress 4"><path d="M244.48,265.71 C257.89,248.28 276.64,227.75 298,215.3 C304.89,211.28 307.57,212.19 315.5,211.3 C354.36,206.91 628.64,206.91 667.5,211.3 C675.43,212.19 678.03,211.41 685,215.3 C711.07,229.83 730.5086,250.5635 745.3186,269.2935 " fill="none" id="wpvip-to-Wordpress 4" style="stroke:#181818;stroke-width:1.0;"/><polygon fill="#181818" points="749.04,274,746.5955,264.4593,745.9388,270.0779,740.3202,269.4213,749.04,274" style="stroke:#181818;stroke-width:1.0;"/></g><!--link wpvip to Wordpress 5--><g id="link_wpvip_Wordpress 5"><path d="M244.48,265.71 C257.89,248.28 276.64,227.75 298,215.3 C304.89,211.28 307.57,212.19 315.5,211.3 C339.74,208.56 514.23,202.5 535,215.3 C558.49,229.76 574.4491,250.1578 586.3791,268.9078 " fill="none" id="wpvip-to-Wordpress 5" style="stroke:#181818;stroke-width:1.0;"/><polygon fill="#181818" points="589.6,273.97,588.1434,264.2294,586.9159,269.7515,581.3939,268.524,589.6,273.97" style="stroke:#181818;stroke-width:1.0;"/></g><!--link dbvip to Banco de dados 1--><g id="link_dbvip_Banco de dados 1"><path d="M372.68,328.47 C364.9,353.54 355.7578,382.9794 348.7278,405.6394 " fill="none" id="dbvip-to-Banco de dados 1" style="stroke:#181818;stroke-width:1.0;"/><polygon fill="#181818" points="346.95,411.37,353.4371,403.9594,348.4315,406.5945,345.7964,401.5889,346.95,411.37" style="stroke:#181818;stroke-width:1.0;"/></g><!--link dbvip to Banco de dados 2--><g id="link_dbvip_Banco de dados 2"><path d="M349.24,328.7 C334.6,340.55 316.49,353.08 298,360.59 C273.48,370.55 263.8,359.37 239,368.59 C212.2,378.56 190,393.0703 170.84,407.6903 " fill="none" id="dbvip-to-Banco de dados 2" style="stroke:#181818;stroke-width:1.0;"/><polygon fill="#181818" points="166.07,411.33,175.6514,409.0504,170.045,408.2969,170.7985,402.6905,166.07,411.33" style="stroke:#181818;stroke-width:1.0;"/></g><!--link dbvip to Banco de dados 3--><g id="link_dbvip_Banco de dados 3"><path d="M422.89,328.71 C441.73,340.95 464.99,353.78 488,360.59 C525.33,371.65 625.94,356.66 663,368.59 C690.61,377.49 713.2206,392.4223 732.3106,407.4923 " fill="none" id="dbvip-to-Banco de dados 3" style="stroke:#181818;stroke-width:1.0;"/><polygon fill="#181818" points="737.02,411.21,732.4343,402.4938,733.0955,408.1119,727.4774,408.7731,737.02,411.21" style="stroke:#181818;stroke-width:1.0;"/></g><!--link dbvip to Banco de dados 4--><g id="link_dbvip_Banco de dados 4"><path d="M421.95,328.47 C455.19,353.46 497.0044,384.8841 527.1544,407.5541 " fill="none" id="dbvip-to-Banco de dados 4" style="stroke:#181818;stroke-width:1.0;"/><polygon fill="#181818" points="531.95,411.16,527.1605,402.5542,527.9537,408.1551,522.3527,408.9483,531.95,411.16" style="stroke:#181818;stroke-width:1.0;"/></g><!--SRC=[ZPA_JiCm48VtFiKfp1bmqgMgCY1rO0A1WA5akDfk5P7OhjqKfAeFKp7m87anhebQybyiaNBVtUTVpb5QIF2Uf4aJZiLFyQr1mi9nJF5TBRvaPb8DN6SmXQmuRVD4eVFWC9a06EGVkA7fr_j73suUB2fwEn01MBvfAuoLpiM03ZxDFZ4mdzCpYie6WJjSeQFfErHS0wKGA3IvgLsickt7yt6p5vSN9vjeDmFVZoedrPVFqkuJeItSnYKefnk0rK4z-TyeVG1kS-p49scxmZgL8Bw4x9hPe3diUAOZde0y1bEviLAgYwovkslMLfcDQCD_Q8D-RNZLLjVhftAzepMtbpT8sIWDQZJgxAqFqFg8L3_F-RvxrpECsJWEnZ6bElu2]--></g></svg>