<?xml version="1.0" encoding="us-ascii" standalone="no"?><svg xmlns="http://www.w3.org/2000/svg" xmlns:xlink="http://www.w3.org/1999/xlink" contentStyleType="text/css" height="207px" preserveAspectRatio="none" style="width:395px;height:207px;background:#FFFFFF;" version="1.1" viewBox="0 0 395 207" width="395px" zoomAndPan="magnify"><defs/><g><!--cluster Servidor ?nico--><g id="cluster_Servidor &#218;nico"><polygon fill="none" points="16,16,26,6,378,6,378,180.59,368,190.59,16,190.59,16,16" style="stroke:#181818;stroke-width:1.0;"/><line style="stroke:#181818;stroke-width:1.0;" x1="368" x2="378" y1="16" y2="6"/><line style="stroke:#181818;stroke-width:1.0;" x1="16" x2="368" y1="16" y2="16"/><line style="stroke:#181818;stroke-width:1.0;" x1="368" x2="368" y1="16" y2="190.59"/><text fill="#000000" font-family="sans-serif" font-size="14" font-weight="bold" lengthAdjust="spacing" textLength="116" x="135" y="31.9951">Servidor &#218;nico</text></g><!--cluster Servidor--><g id="cluster_Servidor"><path d="M42.5,54 L110.5,54 A3.75,3.75 0 0 1 113,56.5 L120,76.2969 L351.5,76.2969 A2.5,2.5 0 0 1 354,78.7969 L354,164.09 A2.5,2.5 0 0 1 351.5,166.59 L42.5,166.59 A2.5,2.5 0 0 1 40,164.09 L40,56.5 A2.5,2.5 0 0 1 42.5,54 " fill="#98FB98" style="stroke:#000000;stroke-width:1.5;"/><line style="stroke:#000000;stroke-width:1.5;" x1="40" x2="120" y1="76.2969" y2="76.2969"/><text fill="#000000" font-family="sans-serif" font-size="14" font-weight="bold" lengthAdjust="spacing" textLength="67" x="44" y="68.9951">Servidor</text></g><!--entity db--><g id="elem_db"><path d="M205.5,99 C205.5,89 272,89 272,89 C272,89 338.5,89 338.5,99 L338.5,140.5938 C338.5,150.5938 272,150.5938 272,150.5938 C272,150.5938 205.5,150.5938 205.5,140.5938 L205.5,99 " fill="#F1F1F1" style="stroke:#181818;stroke-width:0.5;"/><path d="M205.5,99 C205.5,109 272,109 272,109 C272,109 338.5,109 338.5,99 " fill="none" style="stroke:#181818;stroke-width:0.5;"/><text fill="#000000" font-family="sans-serif" font-size="14" font-style="italic" lengthAdjust="spacing" textLength="58" x="243" y="125.9951">&#171;mysql&#187;</text><text fill="#000000" font-family="sans-serif" font-size="14" lengthAdjust="spacing" textLength="113" x="215.5" y="142.292">Banco de dados</text></g><!--entity Wordpress--><g id="elem_Wordpress"><rect fill="#F1F1F1" height="46.2969" rx="2.5" ry="2.5" style="stroke:#181818;stroke-width:0.5;" width="115" x="55.5" y="96.64"/><rect fill="#F1F1F1" height="10" style="stroke:#181818;stroke-width:0.5;" width="15" x="150.5" y="101.64"/><rect fill="#F1F1F1" height="2" style="stroke:#181818;stroke-width:0.5;" width="4" x="148.5" y="103.64"/><rect fill="#F1F1F1" height="2" style="stroke:#181818;stroke-width:0.5;" width="4" x="148.5" y="107.64"/><text fill="#000000" font-family="sans-serif" font-size="14" lengthAdjust="spacing" textLength="75" x="70.5" y="129.6351">Wordpress</text></g><!--link Wordpress to db--><g id="link_Wordpress_db"><path d="M170.76,119.79 C182.23,119.79 187.7,119.79 199.17,119.79 " fill="none" id="Wordpress-to-db" style="stroke:#181818;stroke-width:1.0;"/><polygon fill="#181818" points="205.17,119.79,196.17,115.79,200.17,119.79,196.17,123.79,205.17,119.79" style="stroke:#181818;stroke-width:1.0;"/></g><!--SRC=[JSmn2i9048NXVa_nM6jl4BRm2XOMOZ7P6K8mxgmx8aZ8HRoE5yiGKlYNZuzNb0NnBEqziZRylcNC6Z670AzIljFm1o8EbIOPcaXnX2sc5_LapavKii8VcLWjWWpSe-iU7tjEAUt-Uj76jOdP3SVaOjkNiAm0]--></g></svg>