<?xml version="1.0" encoding="us-ascii" standalone="no"?><svg xmlns="http://www.w3.org/2000/svg" xmlns:xlink="http://www.w3.org/1999/xlink" contentStyleType="text/css" height="328px" preserveAspectRatio="none" style="width:296px;height:328px;background:#FFFFFF;" version="1.1" viewBox="0 0 296 328" width="296px" zoomAndPan="magnify"><defs/><g><!--cluster Servidores Separados--><g id="cluster_Servidores Separados"><polygon fill="none" points="16,16,26,6,279,6,279,301.89,269,311.89,16,311.89,16,16" style="stroke:#181818;stroke-width:1.0;"/><line style="stroke:#181818;stroke-width:1.0;" x1="269" x2="279" y1="16" y2="6"/><line style="stroke:#181818;stroke-width:1.0;" x1="16" x2="269" y1="16" y2="16"/><line style="stroke:#181818;stroke-width:1.0;" x1="269" x2="269" y1="16" y2="311.89"/><text fill="#000000" font-family="sans-serif" font-size="14" font-weight="bold" lengthAdjust="spacing" textLength="175" x="56" y="31.9951">Servidores Separados</text></g><!--cluster Servidor Aplica??o--><g id="cluster_Servidor Aplica&#231;&#227;o"><path d="M70.5,54 L218.5,54 A3.75,3.75 0 0 1 221,56.5 L228,76.2969 L228.5,76.2969 A2.5,2.5 0 0 1 231,78.7969 L231,148.8 A2.5,2.5 0 0 1 228.5,151.3 L70.5,151.3 A2.5,2.5 0 0 1 68,148.8 L68,56.5 A2.5,2.5 0 0 1 70.5,54 " fill="#00FFFF" style="stroke:#000000;stroke-width:1.5;"/><line style="stroke:#000000;stroke-width:1.5;" x1="68" x2="228" y1="76.2969" y2="76.2969"/><text fill="#000000" font-family="sans-serif" font-size="14" font-weight="bold" lengthAdjust="spacing" textLength="147" x="72" y="68.9951">Servidor Aplica&#231;&#227;o</text></g><!--cluster Servidor Banco de Dados--><g id="cluster_Servidor Banco de Dados"><path d="M42.5,175.3 L242.5,175.3 A3.75,3.75 0 0 1 245,177.8 L252,197.5969 L252.5,197.5969 A2.5,2.5 0 0 1 255,200.0969 L255,285.39 A2.5,2.5 0 0 1 252.5,287.89 L42.5,287.89 A2.5,2.5 0 0 1 40,285.39 L40,177.8 A2.5,2.5 0 0 1 42.5,175.3 " fill="#98FB98" style="stroke:#000000;stroke-width:1.5;"/><line style="stroke:#000000;stroke-width:1.5;" x1="40" x2="252" y1="197.5969" y2="197.5969"/><text fill="#000000" font-family="sans-serif" font-size="14" font-weight="bold" lengthAdjust="spacing" textLength="199" x="44" y="190.2951">Servidor Banco de Dados</text></g><!--entity Wordpress--><g id="elem_Wordpress"><rect fill="#F1F1F1" height="46.2969" rx="2.5" ry="2.5" style="stroke:#181818;stroke-width:0.5;" width="115" x="87.5" y="89"/><rect fill="#F1F1F1" height="10" style="stroke:#181818;stroke-width:0.5;" width="15" x="182.5" y="94"/><rect fill="#F1F1F1" height="2" style="stroke:#181818;stroke-width:0.5;" width="4" x="180.5" y="96"/><rect fill="#F1F1F1" height="2" style="stroke:#181818;stroke-width:0.5;" width="4" x="180.5" y="100"/><text fill="#000000" font-family="sans-serif" font-size="14" lengthAdjust="spacing" textLength="75" x="102.5" y="121.9951">Wordpress</text></g><!--entity db--><g id="elem_db"><path d="M78.5,220.3 C78.5,210.3 145,210.3 145,210.3 C145,210.3 211.5,210.3 211.5,220.3 L211.5,261.8937 C211.5,271.8937 145,271.8937 145,271.8937 C145,271.8937 78.5,271.8937 78.5,261.8937 L78.5,220.3 " fill="#F1F1F1" style="stroke:#181818;stroke-width:0.5;"/><path d="M78.5,220.3 C78.5,230.3 145,230.3 145,230.3 C145,230.3 211.5,230.3 211.5,220.3 " fill="none" style="stroke:#181818;stroke-width:0.5;"/><text fill="#000000" font-family="sans-serif" font-size="14" font-style="italic" lengthAdjust="spacing" textLength="58" x="116" y="247.2951">&#171;mysql&#187;</text><text fill="#000000" font-family="sans-serif" font-size="14" lengthAdjust="spacing" textLength="113" x="88.5" y="263.592">Banco de dados</text></g><!--link Wordpress to db--><g id="link_Wordpress_db"><path d="M145,135.55 C145,156.19 145,180.99 145,203.82 " fill="none" id="Wordpress-to-db" style="stroke:#181818;stroke-width:1.0;"/><polygon fill="#181818" points="145,209.82,149,200.82,145,204.82,141,200.82,145,209.82" style="stroke:#181818;stroke-width:1.0;"/></g><!--SRC=[ROqn3e9054HxJZ5PQcv0I3JUWCB2M0py7q94TjaL4sCuZOK7uM9kH0s5vIHltkkjA4of_jgAzHfGggEds61mJm37-iHcXM3ZkhRc_9mVrY3bCF8D0eUzzUAY8npZdfA_xotxsY8sTqiZTUoqyQhznm88BwmOuki7om8pG2ha-VaMXguelfLL65bMH2QPNW00]--></g></svg>